<svg width="57" height="57" viewBox="0 0 57 57" fill="none" xmlns="http://www.w3.org/2000/svg">
<path d="M23.256 44.0555C26.1182 44.0555 28.4412 41.7326 28.4412 38.8704V33.6852H23.256C20.3938 33.6852 18.0708 36.0081 18.0708 38.8704C18.0708 41.7326 20.3938 44.0555 23.256 44.0555Z" fill="#0ACF83"/>
<path d="M18.0708 28.5C18.0708 25.6378 20.3938 23.3148 23.256 23.3148H28.4412V33.6852H23.256C20.3938 33.6852 18.0708 31.3622 18.0708 28.5Z" fill="#A259FF"/>
<path d="M18.0708 18.1296C18.0708 15.2674 20.3938 12.9445 23.256 12.9445H28.4412V23.3148H23.256C20.3938 23.3148 18.0708 20.9919 18.0708 18.1296Z" fill="#F24E1E"/>
<path d="M28.4414 12.9445H33.6266C36.4888 12.9445 38.8118 15.2674 38.8118 18.1296C38.8118 20.9919 36.4888 23.3148 33.6266 23.3148H28.4414V12.9445Z" fill="#FF7262"/>
<path d="M38.8118 28.5C38.8118 31.3622 36.4888 33.6852 33.6266 33.6852C30.7644 33.6852 28.4414 31.3622 28.4414 28.5C28.4414 25.6378 30.7644 23.3148 33.6266 23.3148C36.4888 23.3148 38.8118 25.6378 38.8118 28.5Z" fill="#1ABCFE"/>
</svg>
