<svg width="56" height="57" viewBox="0 0 56 57" fill="none" xmlns="http://www.w3.org/2000/svg">
<path d="M14.7922 26.2078C14.7316 26.2078 14.7165 26.1775 14.7468 26.132L15.0649 25.7231C15.0952 25.6776 15.1709 25.6473 15.2315 25.6473H20.6391C20.6997 25.6473 20.7149 25.6928 20.6846 25.7382L20.4271 26.132C20.3968 26.1775 20.321 26.2229 20.2756 26.2229L14.7922 26.2078ZM12.5049 27.6013C12.4443 27.6013 12.4292 27.5711 12.4595 27.5256L12.7776 27.1166C12.8079 27.0712 12.8836 27.0409 12.9442 27.0409H19.8515C19.9121 27.0409 19.9424 27.0863 19.9272 27.1318L19.806 27.4953C19.7909 27.5559 19.7303 27.5862 19.6697 27.5862L12.5049 27.6013ZM16.1706 28.9949C16.11 28.9949 16.0949 28.9495 16.1252 28.904L16.3372 28.5253C16.3675 28.4799 16.4281 28.4345 16.4887 28.4345H19.5182C19.5788 28.4345 19.6091 28.4799 19.6091 28.5405L19.5788 28.904C19.5788 28.9646 19.5182 29.0101 19.4728 29.0101L16.1706 28.9949ZM31.8937 25.9351C30.9394 26.1775 30.2881 26.3593 29.349 26.6016C29.1217 26.6622 29.1066 26.6773 28.9097 26.4501C28.6825 26.1926 28.5158 26.026 28.1978 25.8745C27.2435 25.405 26.3195 25.5413 25.456 26.1017C24.426 26.7682 23.8959 27.7528 23.911 28.9798C23.9262 30.1916 24.7593 31.1913 25.9559 31.3579C26.9859 31.4943 27.8494 31.1307 28.531 30.3582C28.6673 30.1916 28.7885 30.0098 28.94 29.7977H26.0165C25.6984 29.7977 25.6227 29.6008 25.7287 29.3433C25.9256 28.8737 26.2892 28.0861 26.5012 27.6922C26.5467 27.6013 26.6527 27.4499 26.8799 27.4499H32.3936C32.3633 27.8589 32.3633 28.2678 32.3027 28.6768C32.1361 29.7674 31.7271 30.7672 31.0606 31.6457C29.97 33.0847 28.5461 33.9784 26.7436 34.2208C25.2591 34.4177 23.8807 34.1299 22.6689 33.2211C21.548 32.3728 20.9118 31.2519 20.7452 29.8583C20.5483 28.2072 21.033 26.7228 22.0327 25.4201C23.1082 24.0114 24.5321 23.1177 26.274 22.7996C27.6979 22.5421 29.0612 22.7087 30.2881 23.5418C31.0909 24.072 31.6665 24.7991 32.0452 25.6776C32.1361 25.8139 32.0755 25.8897 31.8937 25.9351Z" fill="#00ACD7"/>
<path d="M36.9077 34.3117C35.5293 34.2814 34.2721 33.8876 33.2117 32.9787C32.318 32.2062 31.7576 31.2216 31.5758 30.0552C31.3031 28.3436 31.7727 26.8288 32.8027 25.4807C33.9085 24.0265 35.2415 23.2692 37.044 22.9511C38.5891 22.6784 40.0432 22.8299 41.3611 23.7236C42.5577 24.5415 43.3 25.6473 43.4969 27.1015C43.7544 29.1464 43.1636 30.8126 41.7549 32.2365C40.7552 33.2514 39.5282 33.8876 38.1195 34.1754C37.7105 34.2511 37.3015 34.2662 36.9077 34.3117ZM40.5128 28.1921C40.4977 27.9952 40.4977 27.8437 40.4674 27.6922C40.1947 26.1926 38.8163 25.3444 37.3773 25.6776C35.9686 25.9957 35.0597 26.8894 34.7265 28.3133C34.4538 29.4948 35.0294 30.6914 36.12 31.1762C36.9532 31.5397 37.7863 31.4943 38.5891 31.0853C39.7857 30.4642 40.4371 29.4948 40.5128 28.1921Z" fill="#00ACD7"/>
</svg>
