<svg width="57" height="57" viewBox="0 0 57 57" fill="none" xmlns="http://www.w3.org/2000/svg">
<path d="M42.0904 12.9443L39.5913 40.9411L28.3575 44.0554L17.1547 40.9455L14.6582 12.9443H42.0904Z" fill="#264DE4"/>
<path d="M37.4519 39.1584L39.5876 15.2339H28.3745V41.675L37.4519 39.1584Z" fill="#2965F1"/>
<path d="M20.3813 25.6191L20.6891 29.0533H28.3743V25.6191H20.3813Z" fill="#EBEBEB"/>
<path d="M28.3741 18.668H28.3622H19.7627L20.0749 22.1022H28.3741V18.668Z" fill="#EBEBEB"/>
<path d="M28.3745 38.111V34.538L28.3594 34.542L24.5347 33.5092L24.2902 30.7703H22.4317H20.8428L21.3239 36.1625L28.3587 38.1154L28.3745 38.111Z" fill="#EBEBEB"/>
<path d="M32.5912 29.0531L32.1925 33.507L28.3623 34.5408V38.1137L35.4027 36.1625L35.4543 35.5823L36.2613 26.5411L36.3451 25.6189L36.9651 18.668H28.3623V22.1022H33.2015L32.889 25.6189H28.3623V29.0531H32.5912Z" fill="white"/>
</svg>
