<svg width="58" height="57" viewBox="0 0 58 57" fill="none" xmlns="http://www.w3.org/2000/svg">
<path d="M44.7717 12.9445H13.4868V44.0556H44.7717V12.9445Z" fill="#F7DF1E"/>
<path d="M34.5023 37.2502C35.1324 38.2734 35.9523 39.0255 37.4023 39.0255C38.6205 39.0255 39.3986 38.42 39.3986 37.5835C39.3986 36.581 38.5991 36.226 37.2583 35.6427L36.5234 35.3292C34.402 34.4304 32.9927 33.3045 32.9927 30.9242C32.9927 28.7316 34.6726 27.0625 37.2981 27.0625C39.1672 27.0625 40.511 27.7094 41.4793 29.4032L39.19 30.865C38.686 29.9662 38.1422 29.6121 37.2981 29.6121C36.437 29.6121 35.8912 30.1553 35.8912 30.865C35.8912 31.742 36.4375 32.0971 37.6988 32.6403L38.4337 32.9534C40.9316 34.0185 42.3419 35.1045 42.3419 37.546C42.3419 40.1781 40.2627 41.62 37.4704 41.62C34.7401 41.62 32.9763 40.3262 32.1132 38.6304L34.5023 37.2502ZM24.1172 37.5035C24.579 38.3183 24.9991 39.0072 26.0092 39.0072C26.975 39.0072 27.5843 38.6314 27.5843 37.1702V27.2294H30.5241V37.2097C30.5241 40.2368 28.7394 41.6146 26.1343 41.6146C23.7805 41.6146 22.4174 40.4032 21.7241 38.9442L24.1172 37.5035Z" fill="black"/>
</svg>
