<svg width="275" height="301" viewBox="0 0 275 301" fill="none" xmlns="http://www.w3.org/2000/svg">
<path d="M106.786 300.23C106.747 300.23 106.704 300.225 106.665 300.217C106.325 300.147 106.096 299.794 106.138 299.412L107.379 288.288C107.412 287.991 107.605 287.746 107.867 287.672C108.111 287.602 108.4 287.711 108.557 287.956L109.512 289.443C109.627 289.616 109.663 289.837 109.614 290.045L107.418 299.682C107.343 300.009 107.081 300.23 106.786 300.23Z" fill="#6A3894" fill-opacity="0.6"/>
<path d="M206.099 28.8132C205.837 28.8132 205.593 28.637 205.491 28.3518L205.174 27.4574C205.105 27.2611 205.117 27.0413 205.205 26.855C205.289 26.6671 205.445 26.5329 205.629 26.4825L214.414 24.1233C214.754 24.0461 215.098 24.2559 215.194 24.6267C215.293 25.0009 215.11 25.3935 214.781 25.5194L206.313 28.773C206.241 28.7998 206.169 28.8132 206.099 28.8132Z" fill="#6A3894" fill-opacity="0.6"/>
<path d="M159.749 5.00418C159.486 5.00418 159.242 4.82799 159.14 4.54441L157.884 1.00555C157.763 0.66324 157.89 0.273954 158.179 0.0977654C158.474 -0.0784232 158.833 0.0138798 159.022 0.314229L161.095 3.54095C161.216 3.72721 161.252 3.96715 161.188 4.18529C161.125 4.40509 160.972 4.57795 160.776 4.65176L159.959 4.96386C159.89 4.9907 159.818 5.00418 159.749 5.00418Z" fill="#6A3894" fill-opacity="0.6"/>
<path d="M15.5399 183.93C15.4224 183.93 15.3049 183.893 15.1995 183.825L0.31463 173.748C0.0254292 173.552 -0.0800145 173.141 0.0706169 172.804C0.218225 172.465 0.570701 172.312 0.893033 172.448L17.0371 179.469C17.2058 179.541 17.3384 179.688 17.4046 179.873C17.4739 180.059 17.4679 180.267 17.3926 180.45L16.1333 183.506C16.055 183.695 15.9104 183.838 15.7327 183.898C15.6694 183.92 15.6031 183.93 15.5399 183.93ZM7.40307 176.842L15.2507 182.155L15.9164 180.544L7.40307 176.842Z" fill="#6A3894" fill-opacity="0.6"/>
<path d="M201.927 267.646C201.849 267.646 201.771 267.63 201.692 267.597L201.147 267.364C200.978 267.292 200.843 267.142 200.776 266.954C200.707 266.766 200.713 266.555 200.791 266.37L200.807 266.335C200.957 265.979 201.343 265.822 201.668 265.986L202.198 266.255C202.521 266.417 202.665 266.835 202.53 267.199C202.424 267.476 202.183 267.646 201.927 267.646Z" fill="#6A3894" fill-opacity="0.6"/>
<path d="M13.8948 155.334H13.8767C13.6719 155.328 13.4821 155.215 13.3616 155.029L0.121606 134.383C-0.0410563 134.128 -0.0380544 133.784 0.127631 133.531C0.290293 133.276 0.582522 133.17 0.853646 133.267L11.7198 137.143C11.8554 137.19 11.9698 137.286 12.0542 137.413L18.8444 148.012C19.0131 148.277 19.0041 148.634 18.8233 148.887L14.4069 155.059C14.2804 155.234 14.0937 155.334 13.8948 155.334ZM2.33279 135.323L13.9219 153.398L17.4918 148.411L11.1143 138.456L2.33279 135.323Z" fill="#6A3894" fill-opacity="0.6"/>
<path d="M106.785 300.23C106.578 300.23 106.379 300.119 106.252 299.925L95.0879 282.506C94.9704 282.319 94.9372 282.079 94.9975 281.861C95.0608 281.643 95.2114 281.47 95.4072 281.395L102.119 278.807C102.384 278.703 102.694 278.807 102.866 279.072L108.56 287.956C108.653 288.103 108.695 288.288 108.674 288.469L107.433 299.592C107.4 299.889 107.207 300.134 106.945 300.208C106.894 300.223 106.84 300.23 106.785 300.23ZM96.6604 282.452L106.343 297.56L107.346 288.57L102.086 280.361L96.6604 282.452Z" fill="#6A3894" fill-opacity="0.6"/>
<path d="M260.165 147.008H260.147C259.942 147.001 259.752 146.889 259.632 146.702L256.297 141.496C256.089 141.17 256.155 140.717 256.447 140.482L273.019 127.169C273.281 126.953 273.652 126.995 273.875 127.258C274.101 127.52 274.116 127.929 273.914 128.213L260.677 146.733C260.55 146.907 260.364 147.008 260.165 147.008ZM257.74 141.239L260.192 145.071L269.934 131.445L257.74 141.239Z" fill="#6A3894" fill-opacity="0.6"/>
<path d="M106.786 300.23C106.575 300.23 106.373 300.116 106.247 299.915C106.081 299.645 106.096 299.286 106.286 299.034L110.805 293.034C110.934 292.862 111.127 292.772 111.329 292.773C111.531 292.784 111.718 292.894 111.835 293.077L114.034 296.494C114.155 296.68 114.188 296.92 114.128 297.14C114.064 297.358 113.914 297.531 113.718 297.606L107 300.19C106.931 300.217 106.858 300.23 106.786 300.23ZM111.266 294.688L108.804 297.957L112.462 296.549L111.266 294.688Z" fill="#6A3894" fill-opacity="0.6"/>
<path d="M9.43652 198.702C9.31902 198.702 9.20155 198.667 9.09309 198.593C8.81293 198.4 8.70445 198.004 8.84305 197.67L16.2056 179.842C16.3472 179.495 16.7148 179.332 17.0371 179.468L21.1431 181.255C21.3359 181.339 21.4836 181.52 21.5348 181.743C21.589 181.966 21.5468 182.206 21.4173 182.386L9.94864 198.427C9.81911 198.607 9.62932 198.702 9.43652 198.702ZM17.1365 181.074L12.2833 192.823L19.8417 182.252L17.1365 181.074Z" fill="#6A3894" fill-opacity="0.6"/>
<path d="M72.1298 285.339C71.9219 285.339 71.7201 285.227 71.5966 285.032C71.4429 284.791 71.4369 284.467 71.5815 284.217L79.7816 270.055C79.8719 269.897 80.0135 269.786 80.1762 269.741L80.7576 269.583C81.077 269.503 81.4023 269.686 81.5198 270.025L85.3788 280.943C85.4481 281.14 85.436 281.359 85.3487 281.546C85.2643 281.732 85.1077 281.868 84.9239 281.918L72.2834 285.319C72.2322 285.333 72.181 285.339 72.1298 285.339ZM80.5829 271.354L73.5637 283.477L83.8876 280.698L80.5829 271.354Z" fill="#6A3894" fill-opacity="0.6"/>
<path d="M222.442 244.931C222.298 244.931 222.153 244.877 222.039 244.775C221.882 244.637 221.789 244.426 221.789 244.202V232.254C221.789 231.918 221.996 231.624 222.289 231.546L228.076 229.985C228.22 229.951 228.362 229.963 228.494 230.029L244.123 237.781C244.379 237.907 244.533 238.2 244.509 238.511C244.485 238.821 244.283 239.08 244.012 239.153L222.596 244.911C222.545 244.924 222.493 244.931 222.442 244.931ZM223.096 232.826V243.278L241.837 238.239L228.166 231.458L223.096 232.826Z" fill="#6A3894" fill-opacity="0.6"/>
<path d="M86.3336 286.381C86.0715 286.381 85.8245 286.203 85.7251 285.918L80.3026 270.558C80.2333 270.362 80.2453 270.142 80.3327 269.956C80.417 269.769 80.5737 269.633 80.7574 269.583L84.1676 268.665C84.3483 268.62 84.5381 268.657 84.6888 268.773C84.8424 268.888 84.9448 269.07 84.9689 269.274L86.9813 285.554C87.0265 285.92 86.8186 286.264 86.4993 286.358C86.4421 286.373 86.3878 286.381 86.3336 286.381ZM81.7937 270.803L84.9388 279.696L83.773 270.269L81.7937 270.803Z" fill="#6A3894" fill-opacity="0.6"/>
<path d="M196.556 279.102C196.511 279.102 196.462 279.097 196.417 279.086C196.116 279.012 195.902 278.716 195.902 278.374V264.209C195.902 263.962 196.014 263.73 196.2 263.596C196.39 263.464 196.628 263.447 196.824 263.546L201.665 265.986C201.828 266.066 201.951 266.214 202.011 266.398C202.072 266.581 202.063 266.784 201.987 266.962L197.149 278.678C197.041 278.941 196.806 279.102 196.556 279.102ZM197.21 265.336V275.048L200.529 267.009L197.21 265.336Z" fill="#6A3894" fill-opacity="0.6"/>
<path d="M169.244 23.0741C169.121 23.0741 169 23.0355 168.892 22.96C168.726 22.8409 168.615 22.6429 168.593 22.4214L166.623 1.45513C166.593 1.12626 166.765 0.815808 167.042 0.698383C167.316 0.584292 167.632 0.686631 167.807 0.956807L178.978 18.3825C179.095 18.5688 179.128 18.8087 179.068 19.0269C179.005 19.245 178.854 19.4179 178.658 19.4934L169.458 23.0339C169.389 23.0607 169.316 23.0741 169.244 23.0741ZM168.181 4.04927L169.808 21.3592L177.405 18.4362L168.181 4.04927Z" fill="#6A3894" fill-opacity="0.6"/>
<path d="M243.858 239.174C243.639 239.174 243.431 239.05 243.31 238.842L230.67 217.176C230.6 217.058 230.564 216.921 230.564 216.78V213.013C230.564 212.848 230.615 212.689 230.706 212.56L263.654 166.473L243.828 153.051C243.545 152.858 243.437 152.458 243.575 152.123L244.31 150.352C244.358 150.238 244.431 150.141 244.521 150.067L256.448 140.483C256.589 140.368 256.764 140.32 256.936 140.355C257.107 140.387 257.261 140.493 257.364 140.65L273.935 166.506C274.071 166.719 274.095 166.996 273.996 167.233L244.452 238.75C244.352 238.991 244.145 239.152 243.907 239.173C243.889 239.173 243.873 239.174 243.858 239.174ZM231.872 216.563L243.759 236.942L272.649 167.008L256.68 142.092L245.425 151.136L245.006 152.143L264.967 165.657C265.127 165.766 265.238 165.946 265.271 166.152C265.301 166.359 265.256 166.57 265.139 166.733L231.872 213.268V216.563Z" fill="#6A3894" fill-opacity="0.6"/>
<path d="M108.813 42.0217C108.681 42.0217 108.548 41.9764 108.44 41.8892C108.289 41.7734 108.19 41.5922 108.166 41.3908L106.138 24.7521C106.09 24.3561 106.337 23.9919 106.693 23.9349C107.078 23.8795 107.379 24.1514 107.431 24.544L109.708 41.1224C109.762 41.5033 109.539 41.8624 109.202 41.9446L108.952 42.005C108.907 42.0168 108.859 42.0217 108.813 42.0217Z" fill="#6A3894" fill-opacity="0.6"/>
<path d="M93.5515 43.896C93.4732 43.896 93.3918 43.8792 93.3165 43.8473L72.4368 34.8702C72.2681 34.798 72.1355 34.6504 72.0662 34.4641C71.997 34.2779 72.003 34.0698 72.0783 33.8869L76.9043 22.1998C76.9887 21.9968 77.1514 21.8474 77.3442 21.7954L158.339 0.0287689C158.586 -0.034978 158.851 0.0639928 159.007 0.290526C159.167 0.517059 159.191 0.82411 159.071 1.07748L156.733 5.99898C156.655 6.16173 156.525 6.28592 156.368 6.3463L107.177 25.2738L94.0636 43.6208C93.9371 43.7987 93.7473 43.896 93.5515 43.896ZM73.5574 33.7912L93.3406 42.2969L106.273 24.2016C106.352 24.0926 106.454 24.012 106.572 23.9667L155.697 5.06436L157.236 1.82251L77.9587 23.1277L73.5574 33.7912Z" fill="#6A3894" fill-opacity="0.6"/>
<path d="M51.6178 57.4005C51.4732 57.4005 51.3286 57.3468 51.2141 57.2444C51.0575 57.1068 50.9641 56.8954 50.9641 56.6722V32.4692C50.9641 32.2678 51.0394 32.0748 51.172 31.9372C51.3045 31.7996 51.4732 31.7258 51.66 31.7426L72.1722 33.2377C72.5216 33.2628 72.7898 33.5884 72.7837 33.976L72.5397 51.2373C72.5337 51.5695 72.3288 51.8548 72.0396 51.9336L51.7715 57.3803C51.7203 57.3938 51.669 57.4005 51.6178 57.4005ZM52.2715 33.246V55.7476L71.2413 50.65L71.4673 34.6455L52.2715 33.246Z" fill="#6A3894" fill-opacity="0.6"/>
<path d="M59.489 276.779C59.2812 276.779 59.0823 276.668 58.9558 276.474L8.9029 198.398C8.77336 198.195 8.74626 197.931 8.8306 197.7C8.91493 197.47 9.0987 197.302 9.32163 197.258L40.6578 190.993C40.8054 190.954 40.9771 190.996 41.1127 191.087L50.4424 197.408C50.5177 197.46 50.581 197.527 50.6352 197.607L57.1031 207.694C57.2206 207.877 57.2537 208.11 57.1965 208.325L52.3072 226.507L68.885 273.425C68.9543 273.621 68.9423 273.841 68.8549 274.027C68.7675 274.215 68.6139 274.349 68.4301 274.4L59.6426 276.759C59.5914 276.772 59.5402 276.779 59.489 276.779ZM10.5688 198.488L59.7631 275.229L67.3938 273.18L51.0088 226.806C50.9545 226.653 50.9485 226.487 50.9907 226.331L55.8529 208.249L49.6471 198.576L40.6427 192.474L10.5688 198.488Z" fill="#6A3894" fill-opacity="0.6"/>
<path d="M222.442 232.982C222.298 232.982 222.153 232.929 222.039 232.826C221.882 232.689 221.789 232.477 221.789 232.254V229.254C221.789 229.053 221.864 228.861 221.996 228.724C222.129 228.584 222.301 228.512 222.484 228.527L225.852 228.767C225.931 228.772 226.006 228.794 226.075 228.829L228.494 230.029C228.75 230.155 228.904 230.449 228.88 230.759C228.856 231.069 228.654 231.328 228.383 231.402L222.596 232.962C222.545 232.976 222.493 232.982 222.442 232.982ZM223.096 230.029V231.33L226.211 230.489L225.651 230.212L223.096 230.029Z" fill="#6A3894" fill-opacity="0.6"/>
<path d="M80.33 271.177C80.1221 271.177 79.9233 271.067 79.7968 270.87C79.6431 270.629 79.6371 270.305 79.7817 270.055L83.1828 264.185C83.3304 263.927 83.6076 263.808 83.8727 263.868C84.1408 263.935 84.3426 264.178 84.3788 264.48L84.9692 269.274C85.0144 269.645 84.8005 269.993 84.4752 270.082L80.4836 271.157C80.4324 271.171 80.3812 271.177 80.33 271.177ZM83.3244 266.625L81.7669 269.311L83.5925 268.82L83.3244 266.625Z" fill="#6A3894" fill-opacity="0.6"/>
<path d="M225.81 230.221C225.795 230.221 225.783 230.221 225.768 230.22L222.4 229.98C222.057 229.955 221.789 229.638 221.789 229.253V227.824C221.789 227.577 221.9 227.347 222.087 227.213C222.277 227.08 222.509 227.062 222.707 227.159L226.075 228.829C226.365 228.971 226.521 229.325 226.446 229.668C226.374 229.995 226.108 230.221 225.81 230.221Z" fill="#6A3894" fill-opacity="0.6"/>
<path d="M0.65476 173.854C0.428829 173.854 0.214926 173.723 0.0944329 173.502C-0.04716 173.241 -0.0260445 172.911 0.142633 172.673L17.799 147.981C17.9315 147.802 18.1394 147.746 18.3292 147.706C18.534 147.713 18.7238 147.825 18.8443 148.011L28.6952 163.39C28.7946 163.548 28.8368 163.746 28.8067 163.937C28.7765 164.128 28.6801 164.298 28.5356 164.41L22.39 169.194C22.3147 169.253 22.2304 169.293 22.14 169.312L0.778273 173.84C0.736104 173.849 0.693937 173.854 0.65476 173.854ZM18.281 149.642L2.26344 172.043L21.7574 167.911L27.2462 163.637L18.281 149.642Z" fill="#6A3894" fill-opacity="0.6"/>
<path d="M96.7481 45.2743C96.6668 45.2743 96.5885 45.2576 96.5132 45.2257L93.3169 43.8481C93.1211 43.7642 92.9765 43.5829 92.9223 43.3581C92.868 43.1349 92.9102 42.8966 93.0397 42.7154L106.274 24.2024C106.439 23.9758 106.711 23.8735 106.961 23.954C107.211 24.0312 107.397 24.2678 107.434 24.5581L109.461 41.1969C109.506 41.566 109.292 41.9134 108.967 42.0023L96.9018 45.2542C96.8506 45.2676 96.7994 45.2743 96.7481 45.2743ZM94.6183 42.8463L96.7933 43.7843L108.087 40.7405L106.343 26.4425L94.6183 42.8463Z" fill="#6A3894" fill-opacity="0.6"/>
<path d="M86.2827 48.081C86.2677 48.081 86.2556 48.081 86.2405 48.0793L79.8088 47.6129C79.604 47.5978 79.4202 47.4786 79.3057 47.289L71.5847 34.367C71.428 34.1052 71.4431 33.7595 71.6178 33.5112C71.7925 33.2612 72.0908 33.1706 72.3589 33.283L72.9011 33.5095L96.9832 43.866C97.2513 43.9817 97.42 44.2754 97.3989 44.5942C97.3808 44.9113 97.179 45.1781 96.9018 45.2536L86.4364 48.0609C86.3851 48.0743 86.3339 48.081 86.2827 48.081ZM80.2155 46.1832L86.2255 46.6195L94.5611 44.3827L73.8079 35.4593L80.2155 46.1832Z" fill="#6A3894" fill-opacity="0.6"/>
<path d="M54.3077 72.5532C54.2926 72.5532 54.2806 72.5532 54.2655 72.5515L50.7981 72.2998C50.7288 72.2948 50.6625 72.278 50.5993 72.2495L29.9606 63.1062C29.6955 62.9888 29.5298 62.6951 29.5509 62.378C29.569 62.0625 29.7708 61.7974 30.0479 61.7219L71.7321 50.5181C71.9339 50.4677 72.1357 50.5181 72.2954 50.6574C72.4521 50.7983 72.5424 51.0131 72.5394 51.238L72.4159 59.8611C72.4099 60.1665 72.2352 60.4366 71.9761 60.5373L59.8808 65.1937L54.8198 72.2781C54.6933 72.4526 54.5065 72.5532 54.3077 72.5532ZM50.9849 70.8551L54.0095 71.0732L58.9771 64.1214C59.0554 64.0123 59.1578 63.9318 59.2753 63.8865L71.1175 59.3274L71.2199 52.1541L32.3555 62.5995L50.9849 70.8551Z" fill="#6A3894" fill-opacity="0.6"/>
<path d="M193.916 33.5033C193.654 33.5033 193.41 33.3271 193.308 33.0419L188.678 19.9319C188.608 19.7355 188.62 19.5157 188.708 19.3295C188.795 19.1415 188.949 19.0073 189.132 18.957L201.773 15.5624C202.095 15.4886 202.418 15.6665 202.535 16.0038L206.707 27.8184C206.774 28.0029 206.768 28.2093 206.692 28.3889C206.617 28.5701 206.482 28.7077 206.313 28.7732L194.13 33.4631C194.058 33.4899 193.989 33.5033 193.916 33.5033ZM190.169 20.1769L194.296 31.8589L205.24 27.6455L201.526 17.1263L190.169 20.1769Z" fill="#6A3894" fill-opacity="0.6"/>
<path d="M101.372 49.1854C101.357 49.1854 101.345 49.1854 101.33 49.1838L86.24 48.0796C85.9177 48.0561 85.6586 47.7742 85.6315 47.4152C85.6044 47.0561 85.8153 46.7289 86.1286 46.645L108.924 40.5221C109.102 40.4784 109.289 40.5187 109.433 40.6345C109.581 40.7486 109.683 40.9264 109.707 41.1244L110.259 45.1784C110.307 45.5257 110.126 45.8614 109.828 45.9754L101.586 49.1451C101.516 49.172 101.444 49.1854 101.372 49.1854ZM90.6112 46.9403L101.285 47.7206L108.885 44.7975L108.524 42.1212L90.6112 46.9403Z" fill="#6A3894" fill-opacity="0.6"/>
<path d="M222.442 269.14C222.244 269.14 222.048 269.038 221.924 268.853L205.59 245.015C205.443 244.801 205.413 244.514 205.515 244.27L207.976 238.308C208.052 238.126 208.187 237.987 208.356 237.923L214.176 235.688L220.593 226.711C220.78 226.453 221.099 226.367 221.37 226.498L222.708 227.158C222.942 227.275 223.096 227.535 223.096 227.824V268.412C223.096 268.724 222.918 269.001 222.65 269.102C222.584 269.127 222.512 269.14 222.442 269.14ZM206.868 244.479L221.789 266.258V228.297L221.301 228.057L215.08 236.761C215.002 236.87 214.899 236.95 214.782 236.995L209.046 239.199L206.868 244.479Z" fill="#6A3894" fill-opacity="0.6"/>
<path d="M108.982 290.593C108.774 290.593 108.575 290.483 108.451 290.288L101.8 279.918C101.682 279.732 101.649 279.492 101.709 279.274C101.773 279.056 101.926 278.883 102.119 278.807L111.997 275.007C112.217 274.918 112.473 274.976 112.654 275.159C112.832 275.341 112.904 275.614 112.844 275.874L109.614 290.045C109.551 290.318 109.352 290.528 109.102 290.58C109.063 290.588 109.021 290.593 108.982 290.593ZM103.372 279.866L108.695 288.167L111.28 276.824L103.372 279.866Z" fill="#6A3894" fill-opacity="0.6"/>
<path d="M115.567 300.873C115.359 300.873 115.161 300.762 115.034 300.568L110.774 293.926C110.6 293.656 110.612 293.288 110.804 293.033L115.802 286.412C115.983 286.172 116.278 286.09 116.546 286.204C116.805 286.321 116.971 286.612 116.956 286.926L116.221 300.19C116.203 300.497 116.013 300.76 115.748 300.844C115.688 300.863 115.627 300.873 115.567 300.873ZM112.133 293.537L115.028 298.047L115.528 289.038L112.133 293.537Z" fill="#6A3894" fill-opacity="0.6"/>
<path d="M56.57 208.845C56.3622 208.845 56.1633 208.732 56.0368 208.539L49.569 198.453C49.3912 198.173 49.4123 197.789 49.6232 197.535C49.8341 197.278 50.1775 197.23 50.4426 197.408L58.2119 202.665C58.4649 202.838 58.5824 203.178 58.498 203.497L57.1966 208.326C57.1243 208.591 56.9225 208.789 56.6755 208.835C56.6423 208.841 56.6062 208.845 56.57 208.845ZM52.4851 200.495L56.326 206.485L57.1002 203.618L52.4851 200.495Z" fill="#6A3894" fill-opacity="0.6"/>
<path d="M28.1621 164.541C27.9573 164.541 27.7585 164.435 27.6289 164.236L10.9878 138.259C10.8252 138.004 10.8282 137.66 10.9938 137.407C11.1565 137.153 11.4457 137.048 11.7199 137.143L44.2911 148.8C44.496 148.874 44.6556 149.053 44.7189 149.283C44.7792 149.512 44.737 149.76 44.6044 149.948L41.4985 154.284C41.4594 154.337 41.4112 154.386 41.36 154.426L28.5357 164.41C28.4212 164.497 28.2917 164.541 28.1621 164.541ZM13.199 139.2L28.3188 162.803L40.5345 153.292L42.9897 149.864L13.199 139.2Z" fill="#6A3894" fill-opacity="0.6"/>
<path d="M64.0138 73.2647C63.9988 73.2647 63.9867 73.2647 63.9717 73.263L54.2653 72.5515C54.0213 72.5331 53.8074 72.3669 53.711 72.1186C53.6116 71.8719 53.6448 71.5833 53.7954 71.3719L58.9769 64.1214C59.1125 63.9368 59.3173 63.8344 59.5252 63.8479C59.7361 63.8596 59.9289 63.9854 60.0403 64.1851L64.5651 72.1471C64.6977 72.3786 64.7007 72.6723 64.5772 72.9089C64.4567 73.1304 64.2428 73.2647 64.0138 73.2647ZM55.5969 71.1907L62.7727 71.7159L59.4288 65.8279L55.5969 71.1907Z" fill="#6A3894" fill-opacity="0.6"/>
<path d="M172.693 41.6645C172.431 41.6645 172.187 41.4883 172.085 41.203L169.768 34.6539C169.747 34.5935 169.732 34.5281 169.726 34.4626L168.593 22.4215C168.563 22.0859 168.744 21.7688 169.03 21.658L187.512 14.5484C187.75 14.4578 188.027 14.5283 188.205 14.7414C188.382 14.9545 188.428 15.2616 188.325 15.5267L179.161 38.973C179.089 39.1609 178.947 39.3052 178.775 39.3706L172.907 41.6242C172.835 41.651 172.762 41.6645 172.693 41.6645ZM171.018 34.2126L173.073 40.02L178.077 38.0988L186.533 16.4647L169.949 22.846L171.018 34.2126Z" fill="#6A3894" fill-opacity="0.6"/>
<path d="M110.139 49.8263C110.124 49.8263 110.112 49.8263 110.097 49.8246L101.33 49.1836C101.02 49.1601 100.767 48.8967 100.725 48.5544C100.683 48.2104 100.866 47.8815 101.159 47.7691L109.401 44.5994C109.582 44.5256 109.783 44.5474 109.952 44.6648C110.118 44.7756 110.232 44.9635 110.259 45.1766L110.784 48.9873C110.814 49.2054 110.753 49.4269 110.621 49.5897C110.497 49.7407 110.323 49.8263 110.139 49.8263ZM104.65 47.9671L109.371 48.3127L109.087 46.2606L104.65 47.9671Z" fill="#6A3894" fill-opacity="0.6"/>
<path d="M71.6205 70.5108C71.5421 70.5108 71.4608 70.4941 71.3855 70.4622L59.2541 65.2538C58.998 65.143 58.8293 64.8679 58.8354 64.5608C58.8414 64.2554 59.0161 63.9852 59.2752 63.8862L71.5482 59.1611C71.744 59.0805 71.9729 59.1174 72.1446 59.2601C72.3194 59.3993 72.4188 59.6225 72.4158 59.8608L72.2742 69.7943C72.2712 70.0326 72.1627 70.2524 71.985 70.3866C71.8765 70.4689 71.75 70.5108 71.6205 70.5108ZM61.393 64.6111L70.9818 68.7288L71.0933 60.8759L61.393 64.6111Z" fill="#6A3894" fill-opacity="0.6"/>
<path d="M231.217 217.508C231.001 217.508 230.793 217.387 230.669 217.176L229.458 215.1C229.304 214.838 229.32 214.496 229.494 214.249L230.705 212.558C230.88 212.316 231.166 212.226 231.434 212.325C231.696 212.427 231.871 212.704 231.871 213.013V216.78C231.871 217.102 231.681 217.385 231.404 217.478C231.341 217.498 231.281 217.508 231.217 217.508Z" fill="#6A3894" fill-opacity="0.6"/>
<path d="M71.5781 73.8179C71.5631 73.8179 71.551 73.8179 71.536 73.8162L63.9715 73.2625C63.7637 73.2474 63.5739 73.1216 63.4624 72.9253L58.9376 64.9633C58.787 64.6982 58.8051 64.3542 58.9828 64.1126C59.1606 63.8693 59.4618 63.7837 59.7239 63.8944L71.8553 69.1028C72.1114 69.2119 72.277 69.4887 72.274 69.7925L72.2318 73.0997C72.2288 73.2994 72.1535 73.489 72.021 73.6249C71.9005 73.7491 71.7408 73.8179 71.5781 73.8179ZM64.3873 71.8346L70.9335 72.3128L70.9606 70.2791L61.0976 66.0456L64.3873 71.8346Z" fill="#6A3894" fill-opacity="0.6"/>
<path d="M178.562 39.411C178.384 39.411 178.209 39.3288 178.083 39.1778C177.905 38.9647 177.86 38.6576 177.962 38.3925L187.126 14.9462C187.232 14.6777 187.545 14.4663 187.738 14.5083C188.003 14.5133 188.238 14.6962 188.334 14.9697L194.525 32.5079C194.591 32.6925 194.585 32.8989 194.51 33.0801C194.435 33.2596 194.299 33.3972 194.131 33.4626L178.776 39.3708C178.707 39.3976 178.634 39.411 178.562 39.411ZM187.696 17.1393L179.755 37.4528L193.058 32.335L187.696 17.1393Z" fill="#6A3894" fill-opacity="0.6"/>
<path d="M94.3018 71.8314C94.0879 71.8314 93.8801 71.714 93.7566 71.5059L79.3055 47.2894C79.17 47.0595 79.1609 46.7625 79.2845 46.5226C79.411 46.2809 79.6429 46.14 79.893 46.1601L110.181 48.3717C110.488 48.3935 110.738 48.6502 110.783 48.9875L111.708 55.6926C111.738 55.894 111.687 56.0987 111.576 56.2564L102.845 68.4637C102.767 68.5728 102.665 68.6533 102.547 68.6986L94.5157 71.7911C94.4464 71.818 94.3741 71.8314 94.3018 71.8314ZM81.1251 47.7089L94.5669 70.2306L101.942 67.3915L110.374 55.5987L109.572 49.7862L81.1251 47.7089Z" fill="#6A3894" fill-opacity="0.6"/>
<path d="M235.368 111.312C235.251 111.312 235.133 111.276 235.028 111.207L206.752 92.0662C206.581 91.9504 206.469 91.7524 206.445 91.5309C206.421 91.3094 206.49 91.0863 206.632 90.9285L220.459 75.518L190.108 82.193C189.982 82.2131 189.861 82.2047 189.747 82.1578L186.243 80.6493C186.072 80.5755 185.936 80.4261 185.87 80.2365L172.084 41.2035C172.018 41.0189 172.024 40.8125 172.099 40.6313C172.175 40.4518 172.31 40.3125 172.479 40.2487L214.353 24.1436C214.618 24.0412 214.931 24.1436 215.1 24.4087L265.159 102.488C265.283 102.683 265.313 102.934 265.24 103.159C265.165 103.386 264.996 103.555 264.788 103.616L245.198 109.255C245.026 109.301 244.849 109.274 244.695 109.173L243.767 108.544L235.555 111.282C235.495 111.302 235.432 111.312 235.368 111.312ZM208.144 91.3027L235.459 109.794L243.671 107.055C243.845 106.998 244.035 107.029 244.198 107.131L245.138 107.769L263.541 102.471L214.32 25.6973L194.13 33.463L173.552 41.378L186.981 79.4059L190.042 80.7231L222.315 73.6253C222.586 73.5649 222.881 73.7142 223.017 73.9978C223.153 74.2797 223.107 74.6287 222.902 74.8552L208.144 91.3027Z" fill="#6A3894" fill-opacity="0.6"/>
<path d="M96.9528 76.2683C96.9437 76.2683 96.9347 76.2683 96.9257 76.2666C96.7178 76.2582 96.525 76.1374 96.4075 75.9427L93.7565 71.5062C93.645 71.3199 93.6179 71.085 93.6812 70.8702C93.7474 70.6571 93.8981 70.4893 94.0879 70.4155L102.119 67.323C102.384 67.2223 102.698 67.3264 102.866 67.5898C103.035 67.8549 103.026 68.2106 102.845 68.464L97.4649 75.9931C97.3384 76.1676 97.1516 76.2683 96.9528 76.2683ZM95.314 71.4844L97.001 74.305L100.42 69.5178L95.314 71.4844Z" fill="#6A3894" fill-opacity="0.6"/>
<path d="M9.43625 198.703C9.21032 198.703 8.99343 198.57 8.87593 198.347C8.73433 198.087 8.75545 197.758 8.92413 197.521L20.3928 181.48C20.5705 181.228 20.8718 181.139 21.1429 181.255L36.35 187.873L41.1128 191.086C41.3448 191.244 41.4653 191.544 41.4141 191.843C41.3659 192.14 41.155 192.372 40.8869 192.425L9.55073 198.691C9.51458 198.699 9.47543 198.703 9.43625 198.703ZM21.1158 182.806L11.0269 196.917L38.9589 191.331L35.7716 189.174L21.1158 182.806Z" fill="#6A3894" fill-opacity="0.6"/>
<path d="M40.9862 154.557C40.8115 154.557 40.6368 154.478 40.5102 154.327C40.2873 154.063 40.2722 153.657 40.4741 153.374L43.58 149.038C43.7487 148.801 44.0258 148.709 44.2909 148.798L45.99 149.399C46.225 149.483 46.3997 149.709 46.4358 149.984C46.475 150.258 46.3696 150.531 46.1647 150.691L41.3597 154.426C41.2483 154.513 41.1157 154.557 40.9862 154.557ZM44.3241 150.338L44.309 150.358L44.3301 150.34L44.3241 150.338Z" fill="#6A3894" fill-opacity="0.6"/>
<path d="M187.226 82.8069C186.961 82.8069 186.717 82.6274 186.617 82.3455L185.87 80.2363C185.777 79.9678 185.831 79.6624 186.015 79.456C186.199 79.253 186.473 79.1876 186.714 79.2899L190.217 80.7984C190.489 80.9158 190.66 81.2196 190.633 81.5417C190.609 81.8656 190.392 82.1307 190.109 82.1928L187.352 82.7935C187.31 82.8019 187.268 82.8069 187.226 82.8069Z" fill="#6A3894" fill-opacity="0.6"/>
<path d="M115.577 91.7037C115.474 91.7037 115.372 91.6769 115.275 91.6231L100.951 83.386C100.854 83.3289 100.77 83.245 100.707 83.141L96.4079 75.9425C96.2513 75.679 96.2663 75.3334 96.441 75.0867L110.552 55.3504C110.714 55.1239 110.985 55.0316 111.232 55.1004C111.483 55.1742 111.669 55.4075 111.708 55.6944L116.456 90.3714C116.477 90.5258 116.456 90.6835 116.39 90.8211L116.155 91.3161C116.037 91.5628 115.811 91.7037 115.577 91.7037ZM101.701 82.1779L115.064 89.863L110.642 57.5603L97.7605 75.5784L101.701 82.1779Z" fill="#6A3894" fill-opacity="0.6"/>
<path d="M115.567 300.872C115.417 300.872 115.266 300.814 115.148 300.701C114.989 300.553 114.901 300.33 114.913 300.099L115.649 286.834C115.658 286.68 115.712 286.531 115.802 286.412L129.34 268.442C129.416 268.341 129.515 268.266 129.627 268.222L172.748 251.631C172.907 251.57 173.079 251.579 173.23 251.656L196.824 263.546C197.059 263.663 197.209 263.923 197.209 264.209V278.374C197.209 278.71 197.001 279.003 196.709 279.082L115.721 300.852C115.67 300.866 115.618 300.872 115.567 300.872ZM116.941 287.163L116.275 299.204L195.902 277.8V264.678L172.928 253.1L130.226 269.533L116.941 287.163Z" fill="#6A3894" fill-opacity="0.6"/>
<path d="M201.05 121.942C200.788 121.942 200.541 121.764 200.442 121.48L194.601 104.951C194.507 104.68 194.564 104.373 194.748 104.169L206.633 90.9278C206.843 90.6945 207.181 90.6509 207.434 90.8204L235.709 109.961C235.929 110.11 236.05 110.391 236.017 110.676C235.983 110.961 235.803 111.198 235.556 111.282L219.134 116.76L201.213 121.918C201.159 121.933 201.105 121.942 201.05 121.942ZM195.974 104.862L201.448 120.348L218.785 115.357L233.775 110.355L207.193 92.3625L195.974 104.862Z" fill="#6A3894" fill-opacity="0.6"/>
<path d="M208.569 239.339C208.388 239.339 208.21 239.256 208.084 239.1C207.909 238.885 207.867 238.573 207.975 238.308L210.322 232.619C210.407 232.413 210.572 232.263 210.771 232.213C210.97 232.168 211.178 232.22 211.334 232.363L214.986 235.747C215.166 235.916 215.251 236.18 215.208 236.438C215.166 236.697 215.004 236.91 214.781 236.995L208.783 239.299C208.714 239.326 208.641 239.339 208.569 239.339ZM211.154 234.091L209.801 237.368L213.256 236.041L211.154 234.091Z" fill="#6A3894" fill-opacity="0.6"/>
<path d="M86.3339 286.381C86.1713 286.381 86.0146 286.314 85.8911 286.189C85.7133 286.007 85.641 285.734 85.7013 285.474L95.3202 243.286C95.3383 243.211 95.3654 243.137 95.4046 243.071L104.319 227.679C104.403 227.533 104.529 227.426 104.68 227.376L116.748 223.375C116.899 223.325 117.062 223.337 117.203 223.411L123.517 226.594C123.807 226.738 123.96 227.094 123.882 227.436L112.844 275.874C112.79 276.111 112.633 276.302 112.425 276.382L86.5478 286.341C86.4785 286.368 86.4062 286.381 86.3339 286.381ZM96.5614 243.761L87.2648 284.526L111.666 275.134L122.481 227.668L116.887 224.849L105.286 228.695L96.5614 243.761Z" fill="#6A3894" fill-opacity="0.6"/>
<path d="M129.841 269.639C129.63 269.639 129.428 269.524 129.302 269.323C129.136 269.053 129.151 268.692 129.341 268.442L150.278 240.672C150.464 240.423 150.784 240.339 151.046 240.477L173.23 251.656C173.474 251.778 173.628 252.053 173.616 252.352C173.604 252.651 173.429 252.909 173.176 253.007L130.055 269.598C129.985 269.625 129.913 269.639 129.841 269.639ZM150.958 242.031L131.862 267.363L171.197 252.228L150.958 242.031Z" fill="#6A3894" fill-opacity="0.6"/>
<path d="M104.867 228.802C104.665 228.802 104.469 228.698 104.343 228.51C104.18 228.267 104.168 227.936 104.318 227.68L107.714 221.81C107.753 221.738 107.807 221.676 107.867 221.624L109.06 220.617C109.196 220.503 109.364 220.448 109.539 220.476L112.015 220.834C112.079 220.842 112.142 220.862 112.199 220.892L117.203 223.411C117.453 223.535 117.607 223.82 117.586 224.122C117.568 224.426 117.384 224.684 117.122 224.772L105.054 228.772C104.99 228.792 104.93 228.802 104.867 228.802ZM108.75 222.706L106.373 226.816L115.067 223.933L111.75 222.263L109.636 221.958L108.75 222.706Z" fill="#6A3894" fill-opacity="0.6"/>
<path d="M241.81 110.21C241.563 110.21 241.334 110.054 241.222 109.799C241.087 109.487 241.168 109.111 241.415 108.901L243.464 107.173C243.677 106.992 243.967 106.975 244.199 107.131L245.376 107.928C245.599 108.081 245.72 108.368 245.684 108.656C245.645 108.946 245.455 109.181 245.199 109.255L241.972 110.186C241.918 110.202 241.864 110.21 241.81 110.21Z" fill="#6A3894" fill-opacity="0.6"/>
<path d="M244.903 151.386C244.756 151.386 244.608 151.33 244.487 151.22C244.259 151.01 244.186 150.654 244.31 150.354L257.932 117.377C258.011 117.187 258.155 117.044 258.336 116.984C258.508 116.924 258.707 116.954 258.866 117.058L273.742 127.137C273.929 127.265 274.046 127.488 274.055 127.731C274.064 127.975 273.962 128.208 273.784 128.351L245.286 151.248C245.171 151.341 245.036 151.386 244.903 151.386ZM258.812 118.727L246.536 148.448L272.221 127.812L258.812 118.727Z" fill="#6A3894" fill-opacity="0.6"/>
<path d="M86.334 286.382C86.322 286.382 86.3099 286.382 86.2979 286.38C85.9846 286.361 85.7285 286.098 85.6863 285.752L83.0835 264.679C83.0624 264.506 83.0986 264.331 83.1829 264.185L95.4047 243.071C95.5794 242.773 95.9228 242.664 96.2151 242.798C96.5073 242.941 96.6639 243.3 96.5856 243.645L86.9667 285.833C86.8943 286.157 86.6323 286.382 86.334 286.382ZM84.412 264.747L86.5238 281.859L94.3353 247.604L84.412 264.747Z" fill="#6A3894" fill-opacity="0.6"/>
<path d="M77.558 74.2542C77.5429 74.2542 77.5308 74.2542 77.5158 74.2525L71.536 73.8162C71.1895 73.7911 70.9184 73.4672 70.9244 73.0796L71.4757 33.9526C71.4817 33.5751 71.7468 33.263 72.0842 33.2378C72.4156 33.1841 72.7229 33.4777 72.7741 33.8536L78.2026 73.4152C78.2328 73.6333 78.1725 73.8548 78.04 74.0176C77.9165 74.1686 77.7417 74.2542 77.558 74.2542ZM72.2409 72.4084L76.7898 72.7406L72.6596 42.6512L72.5391 51.2374L72.2409 72.4084Z" fill="#6A3894" fill-opacity="0.6"/>
<path d="M101.252 83.4661C101.149 83.4661 101.047 83.4392 100.954 83.3855L86.156 74.8849L77.5162 74.2523C77.2089 74.2305 76.9589 73.9738 76.9137 73.6365L71.4851 34.0749C71.4369 33.736 71.6086 33.4088 71.8948 33.2846C72.178 33.1672 72.5003 33.2779 72.6751 33.5615L101.797 82.3351C101.96 82.6103 101.939 82.9761 101.74 83.2227C101.61 83.3822 101.432 83.4661 101.252 83.4661ZM78.1247 72.8378L86.376 73.4419C86.4663 73.4486 86.5537 73.4754 86.632 73.5207L99.3117 80.8048L73.2233 37.1054L78.1247 72.8378Z" fill="#6A3894" fill-opacity="0.6"/>
<path d="M108.262 222.933C108.102 222.933 107.943 222.868 107.819 222.74C107.587 222.502 107.542 222.111 107.711 221.814L108.337 220.718C108.473 220.477 108.726 220.361 108.979 220.388L109.545 220.477C109.807 220.518 110.021 220.73 110.088 221.015C110.154 221.3 110.06 221.601 109.85 221.779L108.657 222.785C108.539 222.884 108.401 222.933 108.262 222.933Z" fill="#6A3894" fill-opacity="0.6"/>
<path d="M218.947 116.791C218.661 116.791 218.399 116.58 218.318 116.259C218.221 115.877 218.42 115.479 218.761 115.365L243.671 107.056C243.963 106.958 244.298 107.109 244.439 107.425C244.584 107.739 244.506 108.121 244.252 108.334L242.204 110.063C242.135 110.121 242.056 110.163 241.972 110.187L219.11 116.768C219.056 116.783 219.002 116.791 218.947 116.791Z" fill="#6A3894" fill-opacity="0.6"/>
<path d="M57.8717 204.015C57.7542 204.015 57.6367 203.98 57.5313 203.909L35.7719 189.173C35.4827 188.977 35.3773 188.566 35.5279 188.229C35.6725 187.89 36.028 187.732 36.3503 187.873L59.3749 197.894C59.6913 198.031 59.86 198.417 59.7636 198.78L58.4983 203.495C58.4411 203.711 58.2964 203.886 58.1067 203.966C58.0314 203.998 57.95 204.015 57.8717 204.015ZM42.8543 192.266L57.4891 202.176L58.3386 199.006L42.8543 192.266Z" fill="#6A3894" fill-opacity="0.6"/>
<path d="M111.931 222.283C111.904 222.283 111.877 222.281 111.847 222.276L108.798 221.83C108.575 221.795 108.386 221.637 108.295 221.41C108.202 221.184 108.22 220.92 108.34 220.712L108.75 220.008C108.919 219.717 109.25 219.605 109.536 219.726L112.169 220.877C112.477 221.011 112.645 221.38 112.564 221.736C112.489 222.061 112.227 222.283 111.931 222.283Z" fill="#6A3894" fill-opacity="0.6"/>
<path d="M222.442 269.14C222.427 269.14 222.415 269.14 222.4 269.139L201.885 267.643C201.806 267.638 201.728 267.617 201.656 267.58L150.509 241.803C150.322 241.709 150.187 241.524 150.139 241.301C150.093 241.08 150.145 240.846 150.277 240.672L153.431 236.482C153.603 236.252 153.889 236.163 154.136 236.259L173.516 243.363C173.537 243.37 173.558 243.38 173.576 243.39L222.707 267.747C222.996 267.89 223.153 268.244 223.078 268.586C223.005 268.914 222.74 269.14 222.442 269.14ZM202.089 266.199L218.833 267.419L173.076 244.734L154.148 237.796L151.832 240.871L202.089 266.199Z" fill="#6A3894" fill-opacity="0.6"/>
<path d="M123.249 227.985C123.158 227.985 123.065 227.963 122.981 227.919L111.663 222.218C111.346 222.058 111.196 221.652 111.322 221.291C111.449 220.932 111.792 220.738 112.136 220.864L123.782 225.129C124.107 225.248 124.294 225.629 124.21 226L123.882 227.436C123.833 227.644 123.707 227.819 123.532 227.913C123.442 227.961 123.345 227.985 123.249 227.985Z" fill="#6A3894" fill-opacity="0.6"/>
<path d="M22.0166 169.324C21.7576 169.324 21.5165 169.153 21.4141 168.88C21.2936 168.562 21.39 168.197 21.6431 167.999L45.4178 149.496C45.5835 149.366 45.7974 149.326 45.9902 149.4L69.6384 157.857C69.9246 157.959 70.1114 158.263 70.0933 158.595C70.0722 158.928 69.8553 159.203 69.5631 159.265L22.1401 169.311C22.098 169.319 22.0558 169.324 22.0166 169.324ZM45.8998 150.897L24.8936 167.245L66.7946 158.369L45.8998 150.897Z" fill="#6A3894" fill-opacity="0.6"/>
<path d="M193.209 99.7388C193.149 99.7388 193.091 99.7305 193.031 99.712C192.835 99.6499 192.676 99.4888 192.6 99.2774L186.618 82.345C186.548 82.1436 186.56 81.9171 186.654 81.7275C186.747 81.5395 186.91 81.4053 187.1 81.3634L222.316 73.6246C222.611 73.5608 222.912 73.7319 223.039 74.0407C223.162 74.3511 223.081 74.7152 222.837 74.9199L193.604 99.5912C193.489 99.6885 193.35 99.7388 193.209 99.7388ZM188.121 82.6252L193.501 97.8511L219.788 75.665L188.121 82.6252Z" fill="#6A3894" fill-opacity="0.6"/>
<path d="M195.209 105.413C195.164 105.413 195.119 105.408 195.077 105.398C194.86 105.347 194.682 105.18 194.601 104.951L192.6 99.2782C192.495 98.9745 192.582 98.6288 192.814 98.4308L222.048 73.7596C222.322 73.528 222.707 73.575 222.936 73.8619C223.159 74.1505 223.147 74.5835 222.903 74.8553L207.555 91.9589L195.67 105.2C195.547 105.337 195.381 105.413 195.209 105.413ZM193.998 99.258L195.453 103.384L215.258 81.3188L193.998 99.258Z" fill="#6A3894" fill-opacity="0.6"/>
<path d="M222.442 269.141C222.352 269.141 222.261 269.12 222.177 269.077L173.046 244.719C172.727 244.562 172.576 244.154 172.702 243.793C172.826 243.432 173.175 243.243 173.516 243.364L201.629 253.671L205.515 244.27C205.611 244.036 205.807 243.877 206.036 243.85C206.268 243.822 206.488 243.929 206.626 244.132L222.96 267.971C223.144 268.234 223.141 268.602 222.954 268.864C222.828 269.043 222.638 269.141 222.442 269.141ZM185.418 249.26L220.369 266.588L206.247 245.976L202.571 254.869C202.433 255.208 202.099 255.374 201.773 255.257L185.418 249.26Z" fill="#6A3894" fill-opacity="0.6"/>
<path d="M129.952 198.585H129.931C129.624 198.573 129.364 198.325 129.31 197.988L127.638 187.754C127.608 187.571 127.641 187.383 127.732 187.228L128.425 186.034C128.569 185.78 128.843 185.644 129.108 185.717C129.376 185.779 129.578 186.019 129.618 186.317L130.964 196.125C130.979 196.222 130.973 196.32 130.952 196.414L130.585 198.034C130.512 198.358 130.25 198.585 129.952 198.585Z" fill="#6A3894" fill-opacity="0.6"/>
<path d="M230.007 215.432C229.998 215.432 229.986 215.432 229.974 215.43C229.766 215.42 229.573 215.296 229.458 215.1L222.689 203.495C222.569 203.287 222.551 203.022 222.644 202.795L243.575 152.124C243.653 151.934 243.798 151.791 243.979 151.731C244.153 151.671 244.346 151.701 244.509 151.805L264.967 165.657C265.127 165.766 265.238 165.945 265.271 166.152C265.301 166.358 265.256 166.569 265.139 166.732L230.519 215.158C230.392 215.331 230.206 215.432 230.007 215.432ZM223.982 203.038L230.061 213.46L263.653 166.472L244.455 153.474L223.982 203.038Z" fill="#6A3894" fill-opacity="0.6"/>
<path d="M214.567 237.036C214.417 237.036 214.266 236.977 214.149 236.868L210.497 233.484C210.272 233.272 210.199 232.918 210.323 232.618L214.037 223.646C214.188 223.282 214.576 223.124 214.896 223.287L221.37 226.5C221.556 226.591 221.692 226.774 221.74 226.992C221.788 227.21 221.743 227.441 221.617 227.618L215.08 236.761C214.968 236.915 214.808 237.012 214.634 237.033C214.613 237.034 214.588 237.036 214.567 237.036ZM211.721 232.72L214.471 235.272L220.068 227.446L214.953 224.909L211.721 232.72Z" fill="#6A3894" fill-opacity="0.6"/>
<path d="M59.1368 199.3C59.0555 199.3 58.9742 199.283 58.8988 199.25L0.416946 173.803C0.0885674 173.661 -0.0801111 173.253 0.0403817 172.882C0.157882 172.509 0.516374 172.313 0.85376 172.432L60.4533 193.741C60.7937 193.862 60.9835 194.264 60.8811 194.644L59.7634 198.781C59.7092 198.976 59.5857 199.137 59.423 199.226C59.3326 199.275 59.2362 199.3 59.1368 199.3ZM21.143 181.255L58.7151 197.607L59.4441 194.909L20.6279 181.03L21.143 181.255Z" fill="#6A3894" fill-opacity="0.6"/>
<path d="M201.978 255.294C201.912 255.294 201.842 255.283 201.773 255.257L153.726 237.642C153.522 237.567 153.362 237.382 153.302 237.15C153.244 236.917 153.293 236.667 153.431 236.483L156.841 231.954C157.028 231.705 157.347 231.623 157.607 231.757L202.243 253.902C202.562 254.059 202.713 254.467 202.586 254.828C202.487 255.116 202.24 255.294 201.978 255.294ZM155.052 236.595L189.901 249.371L157.525 233.31L155.052 236.595Z" fill="#6A3894" fill-opacity="0.6"/>
<path d="M123.578 226.548C123.508 226.548 123.439 226.537 123.373 226.511L111.726 222.246L109.06 221.081C108.877 221.001 108.735 220.835 108.678 220.627C108.618 220.419 108.642 220.192 108.75 220.009L112.802 213.024C112.965 212.747 113.269 212.63 113.549 212.725L125.617 217.041C125.946 217.158 126.135 217.541 126.051 217.914L124.21 226C124.165 226.194 124.051 226.36 123.891 226.458C123.795 226.518 123.686 226.548 123.578 226.548ZM110.28 220.051L112.169 220.877L123.117 224.885L124.635 218.217L113.627 214.282L110.28 220.051Z" fill="#6A3894" fill-opacity="0.6"/>
<path d="M223.237 203.827C223.017 203.827 222.809 203.703 222.689 203.495L193.205 152.948C193.1 152.765 193.073 152.538 193.13 152.33L201.285 123.885L200.441 121.479C200.372 121.284 200.384 121.068 200.468 120.881C200.553 120.697 200.706 120.561 200.887 120.509L264.463 102.206C264.704 102.133 264.966 102.227 265.126 102.444C265.289 102.659 265.325 102.959 265.219 103.214L223.83 203.402C223.731 203.644 223.523 203.805 223.285 203.825C223.267 203.825 223.252 203.827 223.237 203.827ZM194.471 152.444L223.138 201.595L263.457 103.999L241.972 110.186L201.926 121.714L202.586 123.595C202.64 123.751 202.646 123.922 202.601 124.081L194.471 152.444Z" fill="#6A3894" fill-opacity="0.6"/>
<path d="M201.978 255.294C201.888 255.294 201.797 255.274 201.713 255.23L157.077 233.086C156.89 232.994 156.751 232.808 156.706 232.584C156.658 232.363 156.709 232.128 156.842 231.953L177.077 205.111C177.26 204.859 177.58 204.782 177.842 204.915L214.896 223.287C215.055 223.366 215.182 223.513 215.242 223.694C215.302 223.877 215.296 224.079 215.224 224.257L202.572 254.869C202.463 255.136 202.225 255.294 201.978 255.294ZM158.399 232.15L201.656 253.608L213.76 224.317L177.76 206.467L158.399 232.15Z" fill="#6A3894" fill-opacity="0.6"/>
<path d="M170.376 35.1154C170.114 35.1154 169.867 34.9376 169.768 34.654L159.14 4.54276C159.073 4.35819 159.079 4.15011 159.155 3.97059C159.23 3.79106 159.369 3.65178 159.537 3.588L167.059 0.691834C167.246 0.614651 167.454 0.644856 167.623 0.765649C167.792 0.884792 167.903 1.0828 167.924 1.30428L171.027 34.3117C171.06 34.6741 170.849 35.008 170.53 35.0936C170.479 35.1087 170.427 35.1154 170.376 35.1154ZM160.607 4.7173L169.225 29.1368L166.71 2.36815L160.607 4.7173Z" fill="#6A3894" fill-opacity="0.6"/>
<path d="M115.811 91.2081C115.775 91.2081 115.739 91.2047 115.703 91.198C115.422 91.1444 115.208 90.8994 115.166 90.5889L108.97 45.3978L106.141 24.7654C106.093 24.4164 106.273 24.0808 106.572 23.9667L155.941 4.9704C156.188 4.87645 156.477 4.95531 156.652 5.18518C156.826 5.41171 156.856 5.73557 156.733 5.99901L116.389 90.8205C116.275 91.0621 116.049 91.2081 115.811 91.2081ZM110.259 45.178L116.16 88.1928L154.802 6.94875L107.515 25.1447L110.259 45.178Z" fill="#6A3894" fill-opacity="0.6"/>
<path d="M130.319 196.965C130.31 196.965 130.298 196.965 130.289 196.963C129.976 196.946 129.72 196.689 129.675 196.347L128.328 186.539C128.304 186.363 128.337 186.184 128.424 186.034L130.651 182.192C130.825 181.885 131.169 181.769 131.467 181.922L133.467 182.918C133.756 183.063 133.91 183.418 133.832 183.762L130.952 196.416C130.88 196.74 130.617 196.965 130.319 196.965ZM129.656 186.591L130.479 192.577L132.431 183.997L131.443 183.506L129.656 186.591Z" fill="#6A3894" fill-opacity="0.6"/>
<path d="M60.2545 195.162C60.1882 195.162 60.1189 195.15 60.0556 195.127L0.456095 173.818C0.169917 173.716 -0.0168715 173.412 0.00120553 173.08C0.0223057 172.748 0.239183 172.473 0.531408 172.41L69.3161 157.836C69.4306 157.817 69.536 157.822 69.6415 157.859L70.0662 158.013C70.4036 158.136 70.5934 158.535 70.491 158.915L60.8811 194.644C60.8299 194.83 60.7154 194.988 60.5587 195.078C60.4654 195.134 60.3599 195.162 60.2545 195.162ZM3.29991 173.306L59.8207 193.514L68.9998 159.384L3.29991 173.306Z" fill="#6A3894" fill-opacity="0.6"/>
<path d="M125.418 218.462C125.352 218.462 125.282 218.45 125.219 218.427L113.151 214.111C112.955 214.042 112.802 213.876 112.735 213.663C112.666 213.45 112.69 213.214 112.802 213.024L127.732 187.228C127.876 186.977 128.147 186.854 128.406 186.908C128.672 186.967 128.873 187.198 128.922 187.492L130.594 197.726C130.612 197.83 130.609 197.936 130.585 198.036L126.051 217.914C126.009 218.108 125.891 218.274 125.734 218.372C125.638 218.432 125.527 218.462 125.418 218.462ZM114.362 213.016L124.957 216.804L129.283 197.832L127.934 189.566L114.362 213.016Z" fill="#6A3894" fill-opacity="0.6"/>
<path d="M88.2528 88.8761C88.1715 88.8761 88.0901 88.8593 88.0118 88.824L50.5994 72.249C50.3012 72.1165 50.1325 71.7624 50.2018 71.4134C50.2741 71.0627 50.5693 70.7993 50.8826 70.8463L86.376 73.4421C86.6833 73.4639 86.9333 73.7206 86.9785 74.0579L88.8975 88.0371C88.9336 88.2955 88.8433 88.5556 88.6595 88.7183C88.542 88.8223 88.3974 88.8761 88.2528 88.8761ZM54.9254 72.5997L87.4334 87.0018L85.7675 74.8566L54.9254 72.5997Z" fill="#6A3894" fill-opacity="0.6"/>
<path d="M72.1299 285.339C71.8618 285.339 71.6208 285.156 71.5213 284.878L51.0091 226.805C50.9549 226.652 50.9489 226.486 50.9911 226.33L69.2378 158.495C69.2891 158.308 69.4035 158.151 69.5602 158.06C69.7108 157.969 69.9006 157.949 70.0633 158.011L98.6942 168.249C99.0226 168.366 99.2124 168.749 99.128 169.121L72.7625 284.791C72.6932 285.096 72.4552 285.317 72.172 285.338C72.157 285.339 72.1419 285.339 72.1299 285.339ZM52.3075 226.506L71.9973 282.242L97.7121 169.425L70.2982 159.624L52.3075 226.506Z" fill="#6A3894" fill-opacity="0.6"/>
<path d="M243.858 239.174C243.768 239.174 243.677 239.153 243.593 239.11L177.312 206.243C177.125 206.151 176.986 205.965 176.941 205.743C176.893 205.52 176.944 205.285 177.077 205.111L178.565 203.136L193.13 152.33C193.209 152.062 193.417 151.867 193.667 151.83C193.914 151.781 194.164 151.917 194.302 152.156L244.406 238.049C244.563 238.32 244.542 238.674 244.355 238.919C244.229 239.085 244.045 239.174 243.858 239.174ZM178.634 205.307L242.108 236.779L229.458 215.1L193.956 154.236L179.773 203.715C179.746 203.805 179.704 203.889 179.649 203.961L178.634 205.307Z" fill="#6A3894" fill-opacity="0.6"/>
<path d="M111.931 99.3702C111.849 99.3702 111.768 99.3534 111.69 99.3181L88.0113 88.8241C87.7944 88.7285 87.6408 88.5137 87.6076 88.2586L85.6887 74.2794C85.6495 74.0076 85.7519 73.7375 85.9508 73.5781C86.1526 73.4186 86.4147 73.3952 86.6316 73.521L115.877 90.3276C116.031 90.4182 116.148 90.5725 116.199 90.7571C116.251 90.9434 116.236 91.1447 116.154 91.3159L112.509 98.9826C112.392 99.2275 112.166 99.3702 111.931 99.3702ZM88.8428 87.626L111.626 97.7241L114.69 91.284L87.1738 75.4708L88.8428 87.626Z" fill="#6A3894" fill-opacity="0.6"/>
<path d="M133.199 184.311C133.109 184.311 133.018 184.289 132.931 184.247L130.931 183.251C130.759 183.163 130.626 182.997 130.572 182.794C130.518 182.591 130.545 182.373 130.648 182.194L131.575 180.578C131.738 180.301 132.048 180.18 132.329 180.277L133.871 180.831C134.199 180.949 134.386 181.331 134.302 181.704L133.832 183.763C133.784 183.971 133.657 184.145 133.482 184.239C133.395 184.286 133.296 184.311 133.199 184.311ZM132.157 182.267L132.756 182.564L132.886 182.007L132.407 181.836L132.157 182.267Z" fill="#6A3894" fill-opacity="0.6"/>
<path d="M72.1297 285.34C72.0424 285.34 71.952 285.32 71.8677 285.279C71.5754 285.137 71.4188 284.778 71.4971 284.432L97.8626 168.763C97.9048 168.568 98.0223 168.402 98.1789 168.304C98.3356 168.207 98.5284 168.185 98.6941 168.249L132.326 180.277C132.519 180.346 132.672 180.51 132.741 180.723C132.811 180.936 132.787 181.171 132.678 181.362L128.828 188.017L84.2792 264.974L72.678 285.006C72.5545 285.219 72.3466 285.34 72.1297 285.34ZM98.9562 169.872L73.7475 280.475L131.118 181.374L98.9562 169.872Z" fill="#6A3894" fill-opacity="0.6"/>
<path d="M133.669 182.252C133.6 182.252 133.531 182.24 133.464 182.215C133.259 182.139 133.103 181.958 133.042 181.728L111.304 98.8466C111.256 98.6637 111.274 98.469 111.352 98.3012L115.232 90.1396L157.914 0.396591C158.034 0.143219 158.263 -0.0480556 158.528 0.010674C158.781 0.0257601 159.007 0.205318 159.101 0.468759L202.586 123.595C202.692 123.899 202.604 124.244 202.372 124.441L134.064 182.104C133.949 182.202 133.811 182.252 133.669 182.252ZM112.633 98.7207L134.031 180.305L201.189 123.612L185.87 80.2361L158.405 2.47556L156.733 5.9993L112.633 98.7207Z" fill="#6A3894" fill-opacity="0.6"/>
<path d="M133.669 182.252C133.603 182.252 133.534 182.24 133.467 182.216L43.8935 150.187L0.456043 134.653C0.278296 134.589 0.130679 134.445 0.0553785 134.253C-0.0199218 134.062 -0.0169199 133.844 0.0614035 133.656L29.6081 62.1257C29.7527 61.7699 30.1263 61.6106 30.4426 61.7532L112.172 97.9655C112.359 98.0477 112.5 98.2222 112.558 98.437L134.296 181.319C134.365 181.579 134.299 181.857 134.124 182.045C134.001 182.18 133.838 182.252 133.669 182.252ZM44.2911 148.798L45.9902 149.399L132.696 180.409L111.392 99.1871L30.536 63.3607L1.55561 133.517L44.2911 148.798Z" fill="#6A3894" fill-opacity="0.6"/>
<path d="M106.785 300.23C106.683 300.23 106.583 300.203 106.487 300.149C106.216 299.995 106.077 299.651 106.153 299.322L133.036 181.344C133.072 181.184 133.157 181.043 133.274 180.943L201.583 123.279C201.812 123.086 202.125 123.081 202.354 123.266C202.589 123.449 202.686 123.779 202.601 124.081L179.772 203.714C179.745 203.805 179.703 203.889 179.649 203.961L116.802 287.348L107.285 299.97C107.159 300.139 106.972 300.23 106.785 300.23ZM134.247 181.95L108.123 296.594L178.564 203.134L200.727 125.828L134.247 181.95Z" fill="#6A3894" fill-opacity="0.6"/>
</svg>
