<svg width="286" height="213" viewBox="0 0 286 213" fill="none" xmlns="http://www.w3.org/2000/svg">
<path d="M167.52 196.372C166.748 197.162 166.76 198.43 167.547 199.204L180.379 211.825C181.167 212.599 182.431 212.587 183.204 211.798C183.977 211.009 183.965 209.741 183.178 208.966L171.771 197.748L182.965 186.313C183.737 185.524 183.726 184.256 182.938 183.482C182.151 182.707 180.886 182.719 180.113 183.509L167.52 196.372ZM1.12148 9.94723C94.2332 -0.566403 160.417 5.95927 204.992 21.5329C249.555 37.1026 272.315 61.6215 279.15 87.0522C285.991 112.503 277.04 139.435 256.995 160.195C236.96 180.946 205.914 195.419 168.927 195.772L168.965 199.777C206.97 199.414 239.052 184.537 259.866 162.98C280.67 141.433 290.29 113.101 283.008 86.01C275.721 58.8992 251.666 33.5991 206.307 17.7514C160.959 1.90748 94.1141 -4.58293 0.674645 5.96771L1.12148 9.94723Z" fill="#6B2C91"/>
</svg>
