<svg width="211" height="239" viewBox="0 0 211 239" fill="none" xmlns="http://www.w3.org/2000/svg">
<path d="M108.098 228.46C108.53 229.475 108.056 230.651 107.04 231.086L90.4751 238.167C89.4586 238.602 88.2842 238.131 87.852 237.116C87.4198 236.1 87.8935 234.925 88.91 234.49L103.634 228.195L97.3739 213.485C96.9417 212.47 97.4154 211.294 98.4319 210.86C99.4484 210.425 100.623 210.896 101.055 211.911L108.098 228.46ZM210.751 4.24669C164.381 4.24672 122.347 13.3853 88.4965 28.2956C54.6195 43.2177 29.0728 63.8582 15.4759 86.7649C1.93144 109.583 0.196194 134.692 13.9368 159.042C27.7475 183.516 57.3372 207.473 107.005 227.39L105.509 231.103C55.4271 211.021 24.8917 186.603 10.4522 161.014C-4.05738 135.302 -2.1678 108.661 12.0375 84.7291C26.1905 60.8857 52.5186 39.776 86.8913 24.6355C121.291 9.48326 163.881 0.24668 210.761 0.246648L210.751 4.24669Z" fill="#6B2C91"/>
</svg>
