<svg width="706" height="706" viewBox="0 0 706 706" fill="none" xmlns="http://www.w3.org/2000/svg">
<path d="M659.249 446.474H427.836V312.56H659.249V446.474ZM429.248 445.062H657.837V313.972H429.248V445.062Z" fill="#E0E0E0"/>
<path d="M611.509 383.965H458.83V388.441H611.509V383.965Z" fill="#F0F0F0"/>
<path d="M622.029 400.655H458.83V405.541H622.029V400.655Z" fill="#F0F0F0"/>
<path d="M622.029 417.542H458.83V422.428H622.029V417.542Z" fill="#F0F0F0"/>
<path d="M512.189 359.721H458.83V371.342H512.189V359.721Z" fill="#F0F0F0"/>
<path d="M658.543 313.266H428.584V334.588H658.543V313.266Z" fill="#E0E0E0"/>
<path d="M640.85 331.396C640.554 331.114 643.519 327.542 647.458 323.419C651.398 319.296 654.857 316.175 655.14 316.443C655.422 316.712 652.471 320.298 648.532 324.435C644.592 328.572 641.133 331.679 640.85 331.396Z" fill="white"/>
<path d="M655.168 331.396C654.886 331.679 651.44 328.572 647.487 324.435C643.533 320.298 640.582 316.726 640.879 316.443C641.175 316.161 644.606 319.267 648.56 323.419C652.514 327.57 655.436 331.114 655.168 331.396Z" fill="white"/>
<path d="M374.491 48.0786H144.532V180.595H374.491V48.0786Z" fill="#E6E6E6"/>
<path d="M327.471 118.792H174.792V123.268H327.471V118.792Z" fill="#F0F0F0"/>
<path d="M337.99 135.481H174.792V140.367H337.99V135.481Z" fill="#F0F0F0"/>
<path d="M337.99 152.369H174.792V157.254H337.99V152.369Z" fill="#F0F0F0"/>
<path d="M228.151 94.5476H174.792V106.168H228.151V94.5476Z" fill="#F0F0F0"/>
<path d="M374.491 48.0786H144.532V69.3998H374.491V48.0786Z" fill="#E0E0E0"/>
<path d="M356.022 66.1098C355.725 65.8415 358.691 62.255 362.63 58.132C366.57 54.0089 370.029 50.8884 370.311 51.1708C370.594 51.4532 367.643 55.0256 363.703 59.1486C359.764 63.2717 356.304 66.3639 356.022 66.1098Z" fill="white"/>
<path d="M370.311 66.1099C370.029 66.3923 366.584 63.2859 362.63 59.1487C358.677 55.0115 355.725 51.4533 356.022 51.1709C356.319 50.8885 359.75 53.9949 363.703 58.1321C367.657 62.2692 370.608 65.8416 370.311 66.1099Z" fill="white"/>
<path d="M287.399 294.247H56.0283V160.318H287.399V294.247ZM57.4403 292.835H285.987V161.73H57.4403V292.835Z" fill="#E0E0E0"/>
<path d="M239.673 231.738H86.9937V236.214H239.673V231.738Z" fill="#F0F0F0"/>
<path d="M250.193 248.427H86.9937V253.313H250.193V248.427Z" fill="#F0F0F0"/>
<path d="M250.193 265.315H86.9937V270.2H250.193V265.315Z" fill="#F0F0F0"/>
<path d="M140.353 207.493H86.9937V219.114H140.353V207.493Z" fill="#F0F0F0"/>
<path d="M286.693 161.024H56.7344V182.346H286.693V161.024Z" fill="#E0E0E0"/>
<path d="M554.422 324.929H282.894V568.019H554.422V324.929Z" fill="#E6E6E6"/>
<path d="M296.548 248.357H83.8447V469.349H296.548V248.357Z" fill="#F0F0F0"/>
<path d="M296.548 248.357H83.8447V272.431H296.548V248.357Z" fill="#E0E0E0"/>
<path d="M101.41 260.147C101.371 261.02 101.077 261.862 100.564 262.57C100.051 263.277 99.3412 263.818 98.5232 264.126C97.7053 264.433 96.815 264.494 95.9629 264.3C95.1108 264.106 94.3344 263.666 93.73 263.035C93.1256 262.404 92.7198 261.609 92.5631 260.75C92.4063 259.89 92.5055 259.003 92.8483 258.199C93.191 257.395 93.7623 256.71 94.4911 256.228C95.22 255.746 96.0744 255.488 96.9483 255.487C98.1567 255.517 99.3043 256.024 100.14 256.897C100.976 257.77 101.433 258.938 101.41 260.147Z" fill="white"/>
<path d="M119.526 260.147C119.49 261.024 119.197 261.871 118.683 262.583C118.169 263.295 117.457 263.84 116.636 264.15C115.815 264.461 114.921 264.523 114.064 264.329C113.208 264.135 112.428 263.693 111.821 263.059C111.214 262.425 110.806 261.626 110.65 260.763C110.493 259.899 110.594 259.008 110.939 258.201C111.285 257.394 111.86 256.706 112.594 256.224C113.327 255.741 114.186 255.485 115.064 255.487C116.272 255.517 117.42 256.024 118.256 256.897C119.092 257.77 119.549 258.938 119.526 260.147Z" fill="white"/>
<path d="M137.642 260.147C137.606 261.024 137.313 261.871 136.799 262.583C136.285 263.295 135.573 263.84 134.752 264.15C133.931 264.461 133.036 264.523 132.18 264.329C131.324 264.135 130.544 263.693 129.937 263.059C129.329 262.425 128.922 261.626 128.765 260.763C128.609 259.899 128.709 259.008 129.055 258.201C129.401 257.394 129.976 256.706 130.709 256.224C131.443 255.741 132.302 255.485 133.18 255.487C134.388 255.517 135.536 256.024 136.372 256.897C137.208 257.77 137.664 258.938 137.642 260.147Z" fill="white"/>
<path d="M628.877 96.4114H357.349V367.035H628.877V96.4114Z" fill="#F0F0F0"/>
<path d="M628.877 96.4114H357.349V128.111H628.877V96.4114Z" fill="#E0E0E0"/>
<path d="M380.478 111.943C380.428 113.096 380.041 114.208 379.364 115.143C378.688 116.077 377.752 116.792 376.672 117.199C375.593 117.606 374.418 117.687 373.293 117.432C372.168 117.176 371.143 116.597 370.345 115.764C369.546 114.931 369.01 113.882 368.803 112.748C368.596 111.613 368.726 110.442 369.178 109.381C369.63 108.32 370.384 107.415 371.346 106.779C372.308 106.142 373.436 105.802 374.59 105.801C376.184 105.838 377.698 106.505 378.802 107.657C379.905 108.808 380.508 110.349 380.478 111.943Z" fill="white"/>
<path d="M402.604 107.792C403.386 108.642 403.902 109.704 404.086 110.845C404.269 111.986 404.113 113.155 403.637 114.208C403.16 115.261 402.385 116.15 401.406 116.765C400.428 117.38 399.29 117.694 398.135 117.667C396.98 117.64 395.858 117.274 394.909 116.614C393.961 115.954 393.227 115.029 392.801 113.955C392.374 112.881 392.272 111.706 392.509 110.575C392.746 109.444 393.31 108.407 394.132 107.594C395.282 106.499 396.82 105.905 398.409 105.942C399.997 105.979 401.505 106.645 402.604 107.792Z" fill="white"/>
<path d="M428.175 111.943C428.125 113.096 427.738 114.208 427.061 115.143C426.385 116.077 425.449 116.792 424.37 117.199C423.29 117.606 422.115 117.687 420.99 117.432C419.865 117.176 418.84 116.597 418.042 115.764C417.244 114.931 416.708 113.882 416.5 112.748C416.293 111.613 416.423 110.442 416.876 109.381C417.328 108.32 418.082 107.415 419.044 106.779C420.006 106.142 421.133 105.802 422.287 105.801C423.881 105.838 425.396 106.505 426.499 107.657C427.603 108.808 428.205 110.349 428.175 111.943Z" fill="white"/>
<path d="M570.222 639.82C570.222 640.017 472.173 640.187 351.263 640.187C230.354 640.187 132.262 640.017 132.262 639.82C132.262 639.622 230.297 639.452 351.263 639.452C472.229 639.452 570.222 639.636 570.222 639.82Z" fill="#263238"/>
<path d="M474.686 466.963C452.871 451.727 447.929 423.445 448.79 398.015C448.931 393.779 448.465 389.288 450.484 385.575C452.504 381.861 457.22 379.306 461.018 381.085C464.167 382.567 465.536 386.239 467.301 389.274C469.656 393.318 473.108 396.612 477.256 398.777C479.953 400.189 483.299 401.036 485.968 399.568C489.639 397.549 490.063 392.508 490.035 388.272C490.035 380.393 489.987 372.523 489.893 364.663C489.64 360.443 490.069 356.209 491.164 352.125C492.477 348.115 495.4 344.401 499.396 343.271C503.392 342.142 508.376 344.472 509.28 348.595C509.436 350.341 509.478 352.095 509.407 353.847C509.52 355.612 510.339 357.547 511.991 358.083C513.643 358.62 515.366 357.391 516.637 356.149C520.986 351.913 523.951 346.392 526.704 340.942C529.458 335.491 532.154 329.886 536.108 325.24C540.062 320.595 545.526 316.909 551.64 316.556C557.754 316.203 564.122 319.959 565.647 325.89C567.172 331.82 563.713 337.878 559.999 342.692C554.395 349.84 547.79 356.141 540.386 361.401C538.941 362.191 537.788 363.423 537.097 364.917C536.179 367.741 538.847 370.565 541.629 371.455C544.778 372.5 548.195 372.175 551.513 372.57C554.831 372.966 558.361 374.406 559.618 377.512C561.341 381.833 557.726 386.352 554.182 389.317C547.065 395.247 538.984 399.913 530.291 403.112C527.184 404.242 523.923 405.244 521.409 407.419C518.896 409.593 517.399 413.391 518.91 416.371C520.421 419.35 524.304 420.296 527.566 419.689C530.827 419.082 533.722 417.331 536.828 416.159C542.632 413.97 550.115 414.366 553.772 419.378C554.905 421.105 555.622 423.071 555.867 425.121C556.112 427.172 555.879 429.252 555.184 431.197C553.771 435.067 551.596 438.616 548.788 441.631C539.54 452.681 527.524 461.076 513.968 465.96C500.512 470.62 488.044 471.89 474.672 466.991" fill="#6A3894"/>
<path d="M559.435 320.044C559.435 320.044 559.308 320.185 559.025 320.439L557.768 321.555C556.667 322.543 555.043 323.983 552.996 325.89C547.191 331.279 541.801 337.099 536.871 343.3C533.722 347.211 530.46 351.644 526.987 356.459C523.513 361.274 519.927 366.471 516.369 371.991C512.575 377.813 509.101 383.837 505.962 390.037C504.324 393.27 502.884 396.645 501.401 400.09L497.024 410.61C491.254 423.86 486.229 437.422 481.972 451.233C478.543 462.533 476.18 474.129 474.912 485.869C474.091 493.792 473.959 501.772 474.517 509.718C474.743 512.542 474.955 514.702 475.152 516.171C475.237 516.877 475.294 517.442 475.35 517.851V518.43C475.289 518.246 475.247 518.057 475.223 517.865C475.152 517.456 475.068 516.905 474.955 516.199C474.7 514.787 474.432 512.556 474.178 509.732C473.497 501.771 473.544 493.765 474.319 485.813C475.508 474.022 477.82 462.372 481.224 451.021C485.445 437.172 490.457 423.575 496.233 410.299L500.724 399.822C502.206 396.391 503.661 392.988 505.313 389.74C508.473 383.522 511.976 377.484 515.804 371.653C519.419 366.005 523.061 360.893 526.493 356.121C529.924 351.348 533.242 346.886 536.377 342.989C541.357 336.805 546.819 331.026 552.713 325.706C554.803 323.828 556.469 322.416 557.599 321.47L558.912 320.411C559.073 320.271 559.248 320.148 559.435 320.044Z" fill="#263238"/>
<path d="M505.496 389.712C505.297 389.13 505.159 388.529 505.086 387.919C504.86 386.747 504.606 385.095 504.31 382.948C503.703 378.712 503.081 372.909 502.418 366.485C501.754 360.06 501.006 354.242 500.384 350.049C500.06 347.959 499.777 346.279 499.58 345.107C499.425 344.507 499.345 343.891 499.34 343.271C499.583 343.837 499.758 344.429 499.862 345.036C500.173 346.194 500.526 347.86 500.921 349.964C501.726 354.2 502.517 359.961 503.18 366.4C503.844 372.839 504.409 378.487 504.846 382.878C505.058 384.855 505.242 386.535 505.383 387.876C505.493 388.482 505.531 389.098 505.496 389.712Z" fill="#263238"/>
<path d="M559.83 379.574C559.143 379.723 558.443 379.809 557.74 379.828C556.328 379.955 554.323 380.125 551.838 380.407C546.868 380.944 540.033 381.932 532.536 383.344C525.038 384.756 518.303 386.351 513.46 387.58C511.045 388.201 509.097 388.766 507.812 389.147C507.126 389.391 506.416 389.561 505.694 389.656C506.346 389.327 507.027 389.058 507.727 388.851C509.054 388.385 510.974 387.735 513.375 387.043C518.19 385.631 524.925 383.951 532.451 382.511C538.826 381.292 545.259 380.396 551.725 379.828C554.224 379.616 556.243 379.532 557.655 379.503C558.381 379.454 559.109 379.478 559.83 379.574Z" fill="#263238"/>
<path d="M481.916 450.033C481.765 449.828 481.642 449.605 481.549 449.369L480.617 447.406C479.812 445.698 478.725 443.171 477.426 440.078C474.799 433.865 471.453 425.167 467.895 415.509C464.336 405.851 461.06 397.153 458.575 390.87C457.361 387.82 456.359 385.321 455.61 383.457L454.819 381.438C454.71 381.205 454.634 380.958 454.594 380.704C454.744 380.908 454.867 381.131 454.961 381.367L455.893 383.33C456.683 385.038 457.785 387.566 459.084 390.658C461.71 396.871 465.056 405.569 468.615 415.227C472.173 424.885 475.449 433.583 477.934 439.866C479.148 442.916 480.151 445.416 480.885 447.279C481.21 448.084 481.478 448.691 481.69 449.299C481.799 449.531 481.875 449.779 481.916 450.033Z" fill="#263238"/>
<path d="M554.04 426.777C553.814 426.907 553.572 427.007 553.32 427.074L551.231 427.78L543.507 430.279C536.983 432.397 527.975 435.419 518.091 438.751C508.207 442.083 499.156 445.048 492.59 447.025C489.314 448.028 486.646 448.79 484.796 449.299L482.664 449.849C482.416 449.928 482.16 449.98 481.901 450.005C482.127 449.875 482.37 449.775 482.621 449.708L484.711 449.002L492.435 446.503C498.958 444.385 507.967 441.363 517.851 438.031C527.735 434.698 536.772 431.733 543.337 429.756C546.627 428.754 549.282 427.991 551.146 427.483L553.278 426.932C553.526 426.854 553.781 426.802 554.04 426.777Z" fill="#263238"/>
<path d="M524.615 84.2681L517.343 86.8662L514.222 77.3635C508.489 59.8405 490.218 50.5355 473.43 56.4517C456.641 62.368 447.703 81.5853 453.436 99.1083L456.556 108.611L449.256 111.223C446.472 112.303 444.212 114.414 442.944 117.117C441.677 119.82 441.5 122.908 442.45 125.739L462.684 187.57C463.104 188.971 463.802 190.274 464.735 191.4C465.668 192.526 466.818 193.454 468.117 194.127C469.416 194.8 470.837 195.205 472.295 195.318C473.753 195.431 475.22 195.25 476.607 194.785L551.965 167.83C554.785 166.752 557.078 164.623 558.36 161.889C559.643 159.156 559.815 156.032 558.841 153.174L538.593 91.3423C538.162 89.945 537.454 88.6489 536.512 87.5313C535.569 86.4136 534.411 85.4973 533.106 84.8371C531.801 84.1769 530.377 83.7862 528.918 83.6885C527.459 83.5907 525.996 83.7879 524.615 84.2681ZM467.174 94.1521C465.629 89.5959 465.906 84.6183 467.949 80.2621C469.991 75.9059 473.64 72.5092 478.131 70.7835C480.349 70.0248 482.697 69.7205 485.035 69.8889C487.373 70.0573 489.653 70.6948 491.739 71.7636C493.825 72.8323 495.674 74.3103 497.177 76.1094C498.679 77.9084 499.804 79.9917 500.483 82.2349L503.59 91.7376L470.281 103.655L467.174 94.1521ZM509.534 149.022L514.702 164.809C514.797 165.125 514.767 165.466 514.617 165.761C514.467 166.055 514.209 166.281 513.897 166.39L506.654 168.974C506.366 169.054 506.058 169.019 505.794 168.877C505.531 168.735 505.333 168.496 505.242 168.212L500.032 152.496C497.159 152.339 494.402 151.309 492.131 149.543C489.86 147.776 488.183 145.358 487.324 142.612C486.096 138.982 486.32 135.017 487.949 131.548C489.578 128.079 492.486 125.375 496.064 124.002C497.831 123.398 499.701 123.156 501.563 123.291C503.425 123.425 505.24 123.933 506.902 124.785C508.564 125.636 510.037 126.813 511.234 128.245C512.431 129.678 513.327 131.337 513.869 133.123C514.778 135.913 514.853 138.907 514.085 141.738C513.318 144.57 511.741 147.116 509.548 149.065L509.534 149.022Z" fill="#6A3894"/>
<path d="M517.018 86.6967C517.018 86.8944 503.533 91.9634 486.759 97.9927C469.984 104.022 456.302 108.865 456.231 108.724C456.161 108.583 469.716 103.471 486.505 97.4279C503.293 91.3845 516.947 86.5131 517.018 86.6967Z" fill="#263238"/>
<path d="M533.03 89.2949C533.092 89.4175 533.144 89.545 533.185 89.6762C533.298 89.9586 533.425 90.3257 533.595 90.7775C533.962 91.8083 534.47 93.2344 535.106 95.0135L540.528 110.8C542.787 117.493 545.484 125.428 548.477 134.239C549.889 138.658 551.556 143.262 553.109 148.105C553.94 150.6 554.299 153.229 554.168 155.857C554.048 157.223 553.659 158.552 553.024 159.768C552.345 160.979 551.439 162.049 550.355 162.917C548.174 164.509 545.752 165.744 543.182 166.574L535.911 169.186L522.144 174.114L498.831 182.416L483.088 187.951L478.852 189.363L477.722 189.73C477.601 189.784 477.472 189.818 477.341 189.829C477.341 189.829 477.454 189.829 477.694 189.66L478.795 189.222L483.031 187.627L498.69 181.866L521.96 173.394L535.699 168.423L542.971 165.797C545.468 165.001 547.819 163.804 549.932 162.253C550.94 161.447 551.784 160.455 552.417 159.33C553.015 158.206 553.375 156.971 553.476 155.701C553.606 153.17 553.261 150.636 552.459 148.232C550.934 143.431 549.325 138.786 547.87 134.366C544.933 125.541 542.222 117.577 540.076 110.884C537.93 104.192 536.122 98.8118 534.88 95.0276C534.287 93.1779 533.835 91.7377 533.468 90.6928L533.129 89.5632C533.086 89.4776 533.053 89.3877 533.03 89.2949Z" fill="#263238"/>
<path d="M493.268 69.8233C493.268 69.8233 492.52 69.4562 491.136 68.8914C489.164 68.1335 487.078 67.7134 484.966 67.6488C481.835 67.5414 478.72 68.1298 475.844 69.3714C472.347 70.9175 469.357 73.4183 467.217 76.5868C465.062 79.7461 463.906 83.4798 463.899 87.3038C463.928 90.4381 464.403 93.5522 465.311 96.5524C466.045 99.1223 466.807 101.17 467.316 102.596C467.615 103.32 467.861 104.066 468.05 104.827C467.649 104.149 467.313 103.436 467.047 102.695C466.468 101.283 465.635 99.2776 464.816 96.6936C463.811 93.6619 463.264 90.4971 463.193 87.3038C463.155 83.3353 464.338 79.4511 466.581 76.1773C468.796 72.8931 471.909 70.315 475.548 68.7502C478.513 67.5017 481.725 66.951 484.937 67.1405C487.095 67.2504 489.215 67.7529 491.192 68.6231C491.721 68.867 492.231 69.1502 492.717 69.4703C492.918 69.5585 493.104 69.6776 493.268 69.8233Z" fill="#263238"/>
<path d="M493.918 125.075C494.143 124.938 494.379 124.82 494.624 124.722C495.33 124.403 496.062 124.143 496.812 123.945C498.002 123.594 499.23 123.385 500.469 123.324C502.155 123.233 503.841 123.488 505.425 124.072C509.04 125.343 512.358 129.029 513.996 133.956C514.782 136.601 514.782 139.417 513.996 142.061C513.125 144.932 511.564 147.545 509.449 149.672L509.534 149.291C511.412 154.445 513.46 160.036 515.578 165.868L515.705 166.221L515.352 166.348L512.118 167.421L505.058 169.779L504.705 169.892L504.592 169.539C502.658 163.693 500.54 158.243 498.944 152.891L499.255 153.131C496.494 152.902 493.863 151.866 491.687 150.152C489.718 148.636 488.104 146.708 486.956 144.504C485.921 142.549 485.406 140.361 485.46 138.15C485.525 135.89 486.089 133.672 487.112 131.656C488.135 129.64 489.591 127.875 491.376 126.487C492.111 125.89 492.935 125.414 493.819 125.075C493.021 125.548 492.248 126.062 491.503 126.614C489.542 128.273 488.04 130.407 487.14 132.813C486.367 134.627 486.006 136.589 486.082 138.559C486.157 140.529 486.668 142.458 487.578 144.207C488.706 146.328 490.281 148.178 492.195 149.63C494.271 151.259 496.78 152.241 499.41 152.454H499.65L499.721 152.665C501.274 157.918 503.406 163.411 505.369 169.285L504.903 169.059L511.963 166.701L515.182 165.613L514.956 166.093C512.852 160.262 510.819 154.656 508.955 149.502V149.291L509.125 149.121C511.178 147.082 512.708 144.578 513.587 141.821C514.336 139.292 514.336 136.599 513.587 134.069C512.048 129.325 508.871 125.724 505.425 124.454C503.9 123.866 502.272 123.592 500.639 123.649C499.419 123.677 498.206 123.843 497.024 124.143C494.92 124.665 493.932 125.146 493.918 125.075Z" fill="#263238"/>
<path d="M450.273 532.776L309.228 532.126C301.083 532.081 293.288 528.806 287.557 523.018C281.825 517.231 278.624 509.405 278.658 501.26L280.155 147.681C280.172 143.646 280.983 139.653 282.544 135.931C284.104 132.21 286.383 128.833 289.25 125.992C292.116 123.152 295.515 120.904 299.25 119.378C302.986 117.852 306.986 117.077 311.021 117.097L452.052 117.747C460.197 117.788 467.993 121.06 473.727 126.845C479.462 132.629 482.666 140.454 482.636 148.599L481.139 502.164C481.122 506.2 480.311 510.194 478.751 513.917C477.19 517.64 474.912 521.02 472.046 523.862C469.18 526.705 465.782 528.955 462.046 530.485C458.31 532.014 454.309 532.793 450.273 532.776Z" fill="#455A64"/>
<path d="M451.84 129.904H424.504C423.612 129.92 422.732 130.112 421.914 130.469C421.096 130.826 420.357 131.34 419.738 131.983C419.119 132.625 418.633 133.383 418.307 134.214C417.981 135.044 417.822 135.931 417.839 136.823V141.779C417.856 142.67 417.697 143.556 417.371 144.385C417.045 145.215 416.558 145.972 415.939 146.614C415.32 147.255 414.581 147.768 413.763 148.123C412.945 148.478 412.066 148.669 411.174 148.683L357.886 148.443C356.083 148.395 354.373 147.634 353.131 146.326C351.89 145.018 351.218 143.271 351.263 141.468V136.512C351.309 134.712 350.639 132.966 349.4 131.659C348.162 130.352 346.455 129.588 344.655 129.537H335.039L311.106 129.424C305.413 129.39 299.939 131.613 295.882 135.606C291.825 139.6 289.516 145.038 289.46 150.731L288.048 495.852C288.035 498.676 288.578 501.475 289.647 504.089C290.716 506.703 292.289 509.081 294.277 511.087C296.264 513.093 298.628 514.688 301.232 515.781C303.836 516.873 306.63 517.442 309.454 517.455L450.202 518.105C453.028 518.118 455.829 517.574 458.445 516.505C461.06 515.435 463.44 513.861 465.447 511.872C467.455 509.883 469.051 507.518 470.144 504.912C471.237 502.306 471.807 499.511 471.82 496.685L473.232 151.564C473.266 145.855 471.031 140.367 467.02 136.305C463.009 132.244 457.549 129.941 451.84 129.904Z" fill="white"/>
<path d="M432.905 472.06L328.248 471.608C327.16 471.608 326.285 470.422 326.299 468.982L326.412 441.603C326.412 440.191 327.302 438.977 328.389 438.977L433.046 439.457C433.649 439.561 434.188 439.894 434.551 440.386C434.914 440.878 435.073 441.491 434.995 442.097L434.896 469.448C434.896 470.902 433.992 472.074 432.905 472.06Z" fill="#6A3894"/>
<path d="M361.65 451.505C361.606 451.135 361.429 450.848 361.117 450.644C360.806 450.439 360.424 450.337 359.971 450.337C359.64 450.337 359.351 450.391 359.103 450.498C358.857 450.605 358.665 450.752 358.526 450.939C358.39 451.127 358.322 451.339 358.322 451.578C358.322 451.777 358.369 451.949 358.464 452.093C358.561 452.234 358.685 452.352 358.836 452.447C358.987 452.539 359.145 452.616 359.311 452.677C359.476 452.735 359.628 452.782 359.767 452.819L360.526 453.023C360.721 453.074 360.937 453.145 361.176 453.235C361.417 453.325 361.647 453.448 361.866 453.604C362.087 453.757 362.269 453.954 362.413 454.195C362.557 454.436 362.628 454.731 362.628 455.082C362.628 455.486 362.523 455.851 362.311 456.177C362.102 456.503 361.795 456.762 361.391 456.954C360.99 457.146 360.502 457.242 359.927 457.242C359.392 457.242 358.929 457.156 358.537 456.983C358.148 456.811 357.841 456.57 357.617 456.261C357.396 455.952 357.27 455.593 357.241 455.184H358.176C358.2 455.466 358.295 455.7 358.46 455.885C358.628 456.067 358.84 456.203 359.095 456.294C359.353 456.381 359.631 456.425 359.927 456.425C360.273 456.425 360.583 456.369 360.858 456.257C361.133 456.143 361.351 455.985 361.512 455.783C361.672 455.578 361.752 455.34 361.752 455.067C361.752 454.819 361.683 454.617 361.544 454.461C361.406 454.306 361.223 454.179 360.997 454.082C360.771 453.984 360.526 453.899 360.263 453.826L359.344 453.563C358.76 453.396 358.297 453.156 357.957 452.844C357.616 452.533 357.446 452.125 357.446 451.622C357.446 451.203 357.559 450.838 357.785 450.527C358.014 450.213 358.32 449.97 358.705 449.797C359.092 449.622 359.524 449.534 360 449.534C360.482 449.534 360.911 449.62 361.285 449.793C361.66 449.963 361.957 450.197 362.176 450.494C362.397 450.791 362.514 451.128 362.526 451.505H361.65ZM365.022 449.636V457.111H364.117V449.636H365.022ZM372.764 449.636V457.111H371.888L367.815 451.242H367.742V457.111H366.837V449.636H367.713L371.8 455.52H371.873V449.636H372.764ZM379.685 451.972C379.605 451.726 379.499 451.506 379.367 451.311C379.238 451.114 379.084 450.947 378.904 450.808C378.726 450.669 378.524 450.563 378.298 450.49C378.072 450.417 377.824 450.381 377.553 450.381C377.111 450.381 376.708 450.495 376.345 450.724C375.983 450.953 375.694 451.29 375.48 451.735C375.266 452.18 375.159 452.726 375.159 453.374C375.159 454.021 375.267 454.567 375.484 455.012C375.701 455.458 375.994 455.795 376.364 456.023C376.733 456.252 377.15 456.367 377.612 456.367C378.04 456.367 378.417 456.275 378.743 456.093C379.072 455.908 379.327 455.647 379.51 455.312C379.695 454.973 379.787 454.576 379.787 454.118L380.065 454.177H377.816V453.374H380.663V454.177C380.663 454.792 380.532 455.328 380.269 455.783C380.009 456.238 379.648 456.59 379.189 456.841C378.731 457.089 378.206 457.213 377.612 457.213C376.95 457.213 376.368 457.058 375.867 456.746C375.368 456.435 374.979 455.992 374.699 455.418C374.422 454.843 374.283 454.162 374.283 453.374C374.283 452.782 374.362 452.251 374.52 451.779C374.681 451.304 374.907 450.9 375.199 450.567C375.491 450.234 375.837 449.978 376.236 449.8C376.635 449.623 377.074 449.534 377.553 449.534C377.948 449.534 378.315 449.594 378.656 449.713C378.999 449.83 379.304 449.996 379.572 450.213C379.842 450.427 380.067 450.684 380.247 450.983C380.427 451.28 380.551 451.61 380.619 451.972H379.685ZM390.009 449.636H390.915V454.585C390.915 455.096 390.794 455.553 390.553 455.954C390.315 456.353 389.978 456.668 389.542 456.899C389.107 457.128 388.596 457.242 388.009 457.242C387.423 457.242 386.912 457.128 386.476 456.899C386.041 456.668 385.703 456.353 385.462 455.954C385.223 455.553 385.104 455.096 385.104 454.585V449.636H386.009V454.512C386.009 454.877 386.09 455.202 386.25 455.487C386.411 455.769 386.639 455.992 386.936 456.155C387.236 456.315 387.593 456.396 388.009 456.396C388.425 456.396 388.783 456.315 389.082 456.155C389.382 455.992 389.61 455.769 389.769 455.487C389.929 455.202 390.009 454.877 390.009 454.512V449.636ZM392.722 457.111V449.636H395.248C395.834 449.636 396.314 449.742 396.686 449.954C397.061 450.163 397.338 450.446 397.518 450.804C397.698 451.162 397.788 451.561 397.788 452.001C397.788 452.442 397.698 452.842 397.518 453.202C397.34 453.562 397.066 453.849 396.693 454.063C396.321 454.275 395.844 454.381 395.262 454.381H393.452V453.578H395.233C395.635 453.578 395.957 453.509 396.2 453.37C396.444 453.231 396.62 453.044 396.73 452.808C396.842 452.569 396.898 452.301 396.898 452.001C396.898 451.702 396.842 451.434 396.73 451.198C396.62 450.962 396.443 450.777 396.197 450.644C395.951 450.507 395.625 450.439 395.219 450.439H393.627V457.111H392.722Z" fill="#E8E8E3"/>
<path d="M349.123 231.356L312.807 231.192L312.776 237.856L349.093 238.021L349.123 231.356Z" fill="#6A3894"/>
<path opacity="0.1" d="M349.123 231.356L312.807 231.192L312.776 237.856L349.093 238.021L349.123 231.356Z" fill="black"/>
<path d="M455.582 272.276C455.867 272.247 456.147 272.181 456.415 272.078C456.806 271.925 457.145 271.665 457.395 271.328C457.645 270.991 457.795 270.59 457.827 270.172C457.827 267.927 457.827 264.651 457.827 260.443C457.827 258.339 457.827 255.981 457.827 253.383C457.827 252.748 457.827 252.084 457.827 251.421C457.919 250.777 457.779 250.121 457.432 249.571C457.237 249.307 456.984 249.092 456.693 248.943C456.401 248.793 456.079 248.713 455.751 248.71H453.549H433.145L315.045 248.272C314.743 248.267 314.444 248.335 314.174 248.47C313.903 248.605 313.67 248.804 313.492 249.048C313.151 249.601 313.021 250.258 313.125 250.898C313.125 252.31 313.125 253.722 313.125 255.134C313.125 257.958 313.125 260.782 313.125 263.606C313.125 265.018 313.125 266.43 313.125 267.842C313.067 268.5 313.067 269.161 313.125 269.819C313.199 270.101 313.337 270.362 313.528 270.582C313.719 270.803 313.958 270.976 314.226 271.09C314.505 271.201 314.803 271.253 315.102 271.245H322.289L353.65 271.415L406.741 271.739L442.535 272.022L452.264 272.135H454.791C455.37 272.135 455.652 272.135 455.652 272.135H454.791H452.264H442.535H406.741L353.65 271.965L322.289 271.838H315.102C314.706 271.854 314.312 271.787 313.944 271.64C313.572 271.482 313.242 271.24 312.977 270.934C312.713 270.629 312.522 270.266 312.419 269.875C312.337 269.505 312.309 269.125 312.334 268.746V267.701C312.334 266.289 312.334 264.877 312.334 263.465C312.334 260.641 312.334 257.817 312.334 254.993C312.334 253.581 312.334 252.169 312.334 250.757C312.307 250.381 312.307 250.003 312.334 249.627C312.387 249.212 312.548 248.818 312.8 248.484C313.044 248.143 313.366 247.866 313.74 247.677C314.114 247.487 314.528 247.391 314.947 247.396L433.046 248.046L453.45 248.187H455.652C456.041 248.187 456.423 248.281 456.767 248.461C457.111 248.64 457.407 248.9 457.629 249.218C458.027 249.832 458.188 250.57 458.081 251.294C458.081 251.957 458.081 252.621 458.081 253.256C458.081 255.826 458.081 258.184 458.081 260.316C458.081 264.552 457.982 267.8 457.954 270.059C457.919 270.493 457.762 270.909 457.499 271.257C457.236 271.604 456.88 271.87 456.471 272.022C456.204 272.187 455.896 272.275 455.582 272.276Z" fill="#E0E0E0"/>
<path d="M390.136 255.36H323.715V261.587H390.136V255.36Z" fill="#6A3894"/>
<path opacity="0.2" d="M390.136 255.36H323.715V261.587H390.136V255.36Z" fill="white"/>
<path d="M348.875 292.155L312.559 291.99L312.529 298.655L348.845 298.82L348.875 292.155Z" fill="#6A3894"/>
<path opacity="0.1" d="M348.875 292.155L312.559 291.99L312.529 298.655L348.845 298.82L348.875 292.155Z" fill="black"/>
<path d="M454.664 333.077C454.949 333.042 455.232 332.99 455.511 332.921C455.906 332.796 456.268 332.587 456.575 332.31C456.882 332.032 457.126 331.692 457.29 331.312C457.513 330.742 457.6 330.128 457.544 329.518C457.544 328.841 457.544 328.106 457.544 327.287C457.544 325.65 457.544 323.786 457.544 321.639V312.673C457.612 312.024 457.468 311.371 457.135 310.809C456.787 310.234 456.239 309.807 455.596 309.609C454.893 309.484 454.176 309.446 453.464 309.496H433.145L315.455 309.059C314.822 309.06 314.211 309.291 313.736 309.709C313.26 310.128 312.953 310.704 312.871 311.332C312.871 312.673 312.871 314.156 312.871 315.568C312.871 318.392 312.871 321.216 312.871 324.04C312.871 325.452 312.871 326.864 312.871 328.276C312.818 328.936 312.847 329.6 312.956 330.253C313.132 330.825 313.495 331.322 313.986 331.665C314.508 331.996 315.121 332.154 315.737 332.117H317.7H321.781L353.028 332.272L405.936 332.597L441.603 332.879L451.303 332.992H453.831H454.678H453.831H451.303H441.603H405.936L353 332.935L321.752 332.823H315.61C314.846 332.868 314.089 332.665 313.45 332.244C312.807 331.799 312.338 331.145 312.123 330.394C311.996 329.676 311.958 328.946 312.01 328.219C312.01 326.807 312.01 325.395 312.01 323.983C312.01 321.159 312.01 318.335 312.01 315.511C312.01 314.099 312.01 312.687 312.01 311.275C312.113 310.468 312.506 309.726 313.117 309.188C313.728 308.65 314.514 308.353 315.328 308.353L433.018 309.002L453.337 309.157C454.093 309.111 454.853 309.163 455.596 309.313C456.329 309.552 456.948 310.055 457.333 310.725C457.698 311.347 457.856 312.069 457.784 312.786C457.784 313.45 457.784 314.099 457.784 314.749C457.784 317.305 457.784 319.649 457.784 321.809C457.784 323.969 457.784 325.791 457.784 327.457C457.784 328.262 457.784 329.01 457.784 329.702C457.836 330.333 457.734 330.968 457.488 331.552C457.305 331.941 457.04 332.287 456.711 332.565C456.382 332.842 455.997 333.046 455.582 333.161C455.273 333.187 454.963 333.158 454.664 333.077Z" fill="#E0E0E0"/>
<path d="M348.601 355.594L312.285 355.43L312.255 362.094L348.571 362.259L348.601 355.594Z" fill="#6A3894"/>
<path opacity="0.1" d="M348.601 355.594L312.285 355.43L312.255 362.094L348.571 362.259L348.601 355.594Z" fill="black"/>
<path d="M454.382 396.489C454.667 396.456 454.95 396.404 455.229 396.334C455.621 396.209 455.983 396.003 456.29 395.728C456.596 395.452 456.841 395.115 457.008 394.739C457.229 394.168 457.316 393.555 457.262 392.945C457.262 392.253 457.262 391.533 457.262 390.7C457.262 389.076 457.262 387.199 457.262 385.052V376.086C457.329 375.437 457.186 374.783 456.853 374.222C456.496 373.657 455.951 373.237 455.314 373.036C454.611 372.906 453.895 372.863 453.181 372.909H432.863L315.173 372.471C314.539 372.473 313.929 372.704 313.453 373.122C312.978 373.54 312.671 374.117 312.589 374.745C312.589 376.157 312.589 377.569 312.589 378.981C312.589 381.805 312.589 384.629 312.589 387.453C312.589 388.865 312.589 390.277 312.589 391.689C312.536 392.344 312.564 393.003 312.673 393.651C312.842 394.227 313.207 394.727 313.704 395.063C314.222 395.402 314.838 395.561 315.455 395.515H321.597L352.845 395.685L405.752 396.009L441.419 396.292L451.12 396.405H453.647C454.212 396.405 454.495 396.405 454.495 396.405C454.495 396.405 454.212 396.405 453.647 396.405H451.12H441.419H405.752L352.845 396.249L321.597 396.122H315.455C314.691 396.174 313.931 395.97 313.295 395.543C312.652 395.098 312.183 394.445 311.967 393.694C311.841 392.976 311.803 392.246 311.854 391.519C311.854 390.107 311.854 388.695 311.854 387.283C311.854 384.459 311.854 381.635 311.854 378.811C311.854 377.399 311.854 375.987 311.854 374.505C311.954 373.698 312.345 372.956 312.953 372.418C313.562 371.88 314.346 371.583 315.158 371.582L432.849 372.231L453.167 372.387C453.924 372.34 454.683 372.392 455.426 372.542C456.16 372.782 456.779 373.285 457.163 373.954C457.529 374.576 457.687 375.298 457.615 376.015C457.615 376.679 457.615 377.343 457.615 377.978C457.615 380.534 457.615 382.878 457.615 385.038C457.615 387.199 457.615 389.02 457.615 390.686C457.615 391.491 457.615 392.239 457.615 392.931C457.669 393.563 457.567 394.198 457.319 394.781C457.135 395.171 456.87 395.516 456.541 395.794C456.212 396.072 455.827 396.275 455.412 396.391C455.081 396.504 454.728 396.538 454.382 396.489Z" fill="#E0E0E0"/>
<path d="M388.718 317.921L322.298 317.62L322.27 323.847L388.689 324.148L388.718 317.921Z" fill="#6A3894"/>
<path opacity="0.2" d="M388.718 317.921L322.298 317.62L322.27 323.847L388.689 324.148L388.718 317.921Z" fill="white"/>
<path d="M328.304 384.968C328.262 385.535 328.055 386.079 327.707 386.53C327.36 386.981 326.887 387.32 326.349 387.505C325.81 387.691 325.229 387.714 324.678 387.571C324.126 387.429 323.629 387.129 323.246 386.706C322.864 386.284 322.615 385.759 322.528 385.196C322.442 384.633 322.522 384.057 322.76 383.54C322.998 383.022 323.383 382.586 323.866 382.285C324.35 381.984 324.911 381.832 325.48 381.847C326.267 381.891 327.004 382.243 327.533 382.827C328.062 383.411 328.339 384.18 328.304 384.968Z" fill="#6A3894"/>
<path d="M337.299 385.01C337.326 385.408 337.272 385.808 337.139 386.184C337.006 386.56 336.796 386.905 336.524 387.196C336.252 387.488 335.923 387.721 335.557 387.88C335.191 388.039 334.796 388.121 334.397 388.121C333.998 388.121 333.603 388.039 333.237 387.88C332.871 387.721 332.542 387.488 332.27 387.196C331.998 386.905 331.788 386.56 331.655 386.184C331.522 385.808 331.468 385.408 331.495 385.01C331.468 384.612 331.522 384.212 331.655 383.836C331.788 383.46 331.998 383.115 332.27 382.824C332.542 382.532 332.871 382.299 333.237 382.14C333.603 381.981 333.998 381.899 334.397 381.899C334.796 381.899 335.191 381.981 335.557 382.14C335.923 382.299 336.252 382.532 336.524 382.824C336.796 383.115 337.006 383.46 337.139 383.836C337.272 384.212 337.326 384.612 337.299 385.01Z" fill="#6A3894"/>
<path d="M346.307 385.052C346.266 385.62 346.058 386.163 345.71 386.615C345.363 387.066 344.891 387.405 344.352 387.59C343.813 387.775 343.232 387.798 342.681 387.656C342.129 387.514 341.632 387.213 341.25 386.791C340.867 386.369 340.618 385.844 340.531 385.281C340.445 384.718 340.526 384.142 340.763 383.625C341.001 383.107 341.386 382.671 341.869 382.37C342.353 382.069 342.914 381.917 343.483 381.932C344.269 381.979 345.004 382.332 345.532 382.916C346.06 383.499 346.338 384.266 346.307 385.052Z" fill="#6A3894"/>
<path d="M355.302 385.095C355.26 385.663 355.052 386.206 354.705 386.657C354.357 387.108 353.885 387.447 353.346 387.633C352.808 387.818 352.227 387.841 351.675 387.699C351.124 387.557 350.626 387.256 350.244 386.834C349.862 386.411 349.612 385.886 349.526 385.323C349.439 384.76 349.52 384.185 349.758 383.667C349.996 383.15 350.38 382.713 350.864 382.412C351.347 382.111 351.908 381.959 352.478 381.974C353.263 382.022 353.998 382.375 354.526 382.958C355.054 383.542 355.333 384.309 355.302 385.095Z" fill="#6A3894"/>
<path d="M364.296 385.123C364.257 385.692 364.052 386.236 363.706 386.69C363.36 387.143 362.888 387.484 362.35 387.671C361.811 387.859 361.229 387.884 360.677 387.743C360.124 387.602 359.625 387.303 359.242 386.881C358.858 386.459 358.607 385.934 358.52 385.37C358.432 384.807 358.512 384.23 358.75 383.712C358.988 383.194 359.372 382.757 359.856 382.455C360.34 382.154 360.902 382.001 361.472 382.016C362.255 382.064 362.988 382.415 363.516 382.995C364.043 383.576 364.323 384.339 364.296 385.123Z" fill="#6A3894"/>
<path d="M373.305 385.165C373.266 385.731 373.063 386.273 372.72 386.725C372.377 387.177 371.91 387.519 371.376 387.709C370.841 387.898 370.263 387.928 369.712 387.793C369.161 387.658 368.661 387.365 368.275 386.951C367.888 386.536 367.631 386.017 367.535 385.458C367.44 384.898 367.51 384.324 367.737 383.804C367.964 383.284 368.338 382.842 368.813 382.532C369.288 382.222 369.843 382.057 370.41 382.059C371.205 382.088 371.957 382.432 372.499 383.014C373.042 383.596 373.331 384.37 373.305 385.165Z" fill="#6A3894"/>
<path d="M382.299 385.208C382.327 385.606 382.272 386.005 382.139 386.381C382.006 386.758 381.797 387.102 381.524 387.394C381.252 387.686 380.923 387.919 380.557 388.078C380.191 388.237 379.796 388.319 379.397 388.319C378.998 388.319 378.603 388.237 378.237 388.078C377.871 387.919 377.542 387.686 377.27 387.394C376.998 387.102 376.789 386.758 376.655 386.381C376.522 386.005 376.468 385.606 376.496 385.208C376.468 384.81 376.522 384.41 376.655 384.034C376.789 383.658 376.998 383.313 377.27 383.021C377.542 382.729 377.871 382.497 378.237 382.338C378.603 382.179 378.998 382.096 379.397 382.096C379.796 382.096 380.191 382.179 380.557 382.338C380.923 382.497 381.252 382.729 381.524 383.021C381.797 383.313 382.006 383.658 382.139 384.034C382.272 384.41 382.327 384.81 382.299 385.208Z" fill="#6A3894"/>
<path d="M391.293 385.25C391.255 385.816 391.052 386.358 390.709 386.81C390.366 387.262 389.899 387.604 389.364 387.793C388.83 387.983 388.251 388.012 387.7 387.878C387.15 387.743 386.65 387.45 386.263 387.035C385.877 386.62 385.62 386.101 385.524 385.542C385.429 384.983 385.499 384.408 385.726 383.889C385.953 383.369 386.326 382.927 386.801 382.617C387.276 382.306 387.832 382.142 388.399 382.144C389.194 382.173 389.945 382.516 390.488 383.099C391.03 383.681 391.32 384.455 391.293 385.25Z" fill="#6A3894"/>
<path d="M400.288 385.292C400.249 385.861 400.044 386.406 399.698 386.859C399.352 387.312 398.88 387.654 398.342 387.841C397.803 388.028 397.221 388.053 396.669 387.913C396.116 387.772 395.617 387.472 395.234 387.05C394.85 386.628 394.599 386.103 394.512 385.54C394.424 384.976 394.504 384.4 394.742 383.882C394.98 383.363 395.364 382.926 395.848 382.625C396.332 382.323 396.894 382.171 397.464 382.186C398.247 382.233 398.98 382.585 399.508 383.165C400.035 383.745 400.315 384.509 400.288 385.292Z" fill="#6A3894"/>
<g opacity="0.2">
<path d="M328.304 384.968C328.262 385.535 328.055 386.079 327.707 386.53C327.36 386.981 326.887 387.32 326.349 387.505C325.81 387.691 325.229 387.714 324.678 387.571C324.126 387.429 323.629 387.129 323.246 386.706C322.864 386.284 322.615 385.759 322.528 385.196C322.442 384.633 322.522 384.057 322.76 383.54C322.998 383.022 323.383 382.586 323.866 382.285C324.35 381.984 324.911 381.832 325.48 381.847C326.267 381.891 327.004 382.243 327.533 382.827C328.062 383.411 328.339 384.18 328.304 384.968Z" fill="white"/>
<path d="M337.299 385.01C337.326 385.408 337.272 385.808 337.139 386.184C337.006 386.56 336.796 386.905 336.524 387.196C336.252 387.488 335.923 387.721 335.557 387.88C335.191 388.039 334.796 388.121 334.397 388.121C333.998 388.121 333.603 388.039 333.237 387.88C332.871 387.721 332.542 387.488 332.27 387.196C331.998 386.905 331.788 386.56 331.655 386.184C331.522 385.808 331.468 385.408 331.495 385.01C331.468 384.612 331.522 384.212 331.655 383.836C331.788 383.46 331.998 383.115 332.27 382.824C332.542 382.532 332.871 382.299 333.237 382.14C333.603 381.981 333.998 381.899 334.397 381.899C334.796 381.899 335.191 381.981 335.557 382.14C335.923 382.299 336.252 382.532 336.524 382.824C336.796 383.115 337.006 383.46 337.139 383.836C337.272 384.212 337.326 384.612 337.299 385.01Z" fill="white"/>
<path d="M346.307 385.052C346.265 385.62 346.058 386.163 345.71 386.615C345.363 387.066 344.89 387.405 344.352 387.59C343.813 387.775 343.232 387.798 342.681 387.656C342.129 387.514 341.631 387.213 341.249 386.791C340.867 386.369 340.617 385.844 340.531 385.281C340.445 384.718 340.525 384.142 340.763 383.625C341.001 383.107 341.385 382.671 341.869 382.37C342.352 382.069 342.914 381.917 343.483 381.932C344.268 381.979 345.004 382.332 345.532 382.916C346.06 383.499 346.338 384.266 346.307 385.052Z" fill="white"/>
<path d="M355.302 385.095C355.26 385.663 355.052 386.206 354.705 386.657C354.357 387.108 353.885 387.447 353.346 387.633C352.808 387.818 352.227 387.841 351.675 387.699C351.124 387.557 350.626 387.256 350.244 386.834C349.862 386.411 349.612 385.886 349.526 385.323C349.439 384.76 349.52 384.185 349.758 383.667C349.996 383.15 350.38 382.713 350.864 382.412C351.347 382.111 351.908 381.959 352.478 381.974C353.263 382.022 353.998 382.375 354.526 382.958C355.054 383.542 355.333 384.309 355.302 385.095Z" fill="white"/>
<path d="M364.296 385.123C364.257 385.692 364.052 386.236 363.706 386.69C363.36 387.143 362.888 387.484 362.35 387.671C361.811 387.859 361.229 387.884 360.677 387.743C360.124 387.602 359.625 387.303 359.242 386.881C358.858 386.459 358.607 385.934 358.52 385.37C358.432 384.807 358.512 384.23 358.75 383.712C358.988 383.194 359.372 382.757 359.856 382.455C360.34 382.154 360.902 382.001 361.472 382.016C362.255 382.064 362.988 382.415 363.516 382.995C364.043 383.576 364.323 384.339 364.296 385.123Z" fill="white"/>
<path d="M373.305 385.165C373.266 385.731 373.063 386.273 372.72 386.725C372.377 387.177 371.91 387.519 371.376 387.709C370.841 387.898 370.263 387.928 369.712 387.793C369.161 387.658 368.661 387.365 368.275 386.951C367.888 386.536 367.631 386.017 367.535 385.458C367.44 384.898 367.51 384.324 367.737 383.804C367.964 383.284 368.338 382.842 368.813 382.532C369.288 382.222 369.843 382.057 370.41 382.059C371.205 382.088 371.957 382.432 372.499 383.014C373.042 383.596 373.331 384.37 373.305 385.165Z" fill="white"/>
<path d="M382.299 385.207C382.327 385.606 382.272 386.005 382.139 386.381C382.006 386.757 381.797 387.102 381.524 387.394C381.252 387.686 380.923 387.918 380.557 388.077C380.191 388.237 379.796 388.319 379.397 388.319C378.998 388.319 378.603 388.237 378.237 388.077C377.871 387.918 377.542 387.686 377.27 387.394C376.998 387.102 376.789 386.757 376.655 386.381C376.522 386.005 376.468 385.606 376.496 385.207C376.468 384.809 376.522 384.41 376.655 384.034C376.789 383.658 376.998 383.313 377.27 383.021C377.542 382.729 377.871 382.497 378.237 382.337C378.603 382.178 378.998 382.096 379.397 382.096C379.796 382.096 380.191 382.178 380.557 382.337C380.923 382.497 381.252 382.729 381.524 383.021C381.797 383.313 382.006 383.658 382.139 384.034C382.272 384.41 382.327 384.809 382.299 385.207Z" fill="white"/>
<path d="M391.293 385.25C391.255 385.816 391.052 386.358 390.709 386.81C390.366 387.262 389.899 387.604 389.364 387.793C388.83 387.983 388.251 388.012 387.7 387.878C387.15 387.743 386.65 387.45 386.263 387.035C385.877 386.62 385.62 386.101 385.524 385.542C385.429 384.983 385.499 384.408 385.726 383.889C385.953 383.369 386.326 382.927 386.801 382.617C387.276 382.306 387.832 382.142 388.399 382.144C389.194 382.173 389.945 382.516 390.488 383.099C391.03 383.681 391.32 384.455 391.293 385.25Z" fill="white"/>
<path d="M400.288 385.292C400.249 385.861 400.043 386.406 399.697 386.859C399.351 387.312 398.88 387.654 398.341 387.841C397.803 388.028 397.221 388.053 396.669 387.912C396.116 387.772 395.617 387.472 395.233 387.05C394.85 386.628 394.599 386.103 394.511 385.54C394.424 384.976 394.504 384.4 394.742 383.881C394.979 383.363 395.364 382.926 395.848 382.625C396.332 382.323 396.894 382.171 397.464 382.186C398.246 382.233 398.98 382.585 399.507 383.165C400.035 383.745 400.315 384.508 400.288 385.292Z" fill="white"/>
</g>
<path d="M387.509 181.456C388.49 181.024 389.322 180.313 389.902 179.412C390.482 178.511 390.784 177.459 390.771 176.387C390.808 175.69 390.702 174.994 390.46 174.339C390.219 173.684 389.847 173.086 389.367 172.58C388.887 172.074 388.308 171.671 387.667 171.395C387.026 171.12 386.336 170.978 385.638 170.978C384.941 170.978 384.25 171.12 383.609 171.395C382.969 171.671 382.39 172.074 381.91 172.58C381.43 173.086 381.058 173.684 380.816 174.339C380.575 174.994 380.469 175.69 380.506 176.387C380.484 177.469 380.784 178.534 381.367 179.446C381.95 180.358 382.79 181.077 383.782 181.513C375.874 182.699 376.227 191.284 376.227 191.284L394.922 191.368C394.922 191.368 395.36 182.628 387.509 181.456Z" fill="#6A3894"/>
<path opacity="0.1" d="M387.509 181.456C388.49 181.024 389.322 180.313 389.902 179.412C390.482 178.511 390.784 177.459 390.771 176.387C390.808 175.69 390.702 174.994 390.46 174.339C390.219 173.684 389.847 173.086 389.367 172.58C388.887 172.074 388.308 171.671 387.667 171.395C387.026 171.12 386.336 170.978 385.638 170.978C384.941 170.978 384.25 171.12 383.609 171.395C382.969 171.671 382.39 172.074 381.91 172.58C381.43 173.086 381.058 173.684 380.816 174.339C380.575 174.994 380.469 175.69 380.506 176.387C380.484 177.469 380.784 178.534 381.367 179.446C381.95 180.358 382.79 181.077 383.782 181.513C375.874 182.699 376.227 191.284 376.227 191.284L394.922 191.368C394.922 191.368 395.36 182.628 387.509 181.456Z" fill="black"/>
<path d="M417.888 196.905L351.256 196.603L351.22 204.567L417.852 204.869L417.888 196.905Z" fill="#6A3894"/>
<path opacity="0.2" d="M417.888 196.905L351.256 196.603L351.22 204.567L417.852 204.869L417.888 196.905Z" fill="white"/>
<path d="M172.927 238.176H172.264L170.343 238.317C169.304 238.38 168.271 238.517 167.251 238.727C166.591 238.82 165.936 238.947 165.288 239.108L163.1 239.715C159.375 240.858 155.86 242.599 152.693 244.869C148.509 247.906 145.016 251.794 142.442 256.278C140.93 258.863 139.726 261.616 138.856 264.482C137.942 267.596 137.415 270.812 137.288 274.055C137.204 275.759 137.233 277.466 137.373 279.167C137.373 280.028 137.613 280.889 137.726 281.765C137.821 282.647 137.986 283.521 138.22 284.377C139.49 290.043 142.066 295.334 145.744 299.827C149.421 304.321 154.098 307.893 159.4 310.259C163.238 311.915 167.352 312.839 171.529 312.984C175.844 313.221 180.163 312.602 184.237 311.162L185.48 310.696H185.649L185.791 310.781L203.596 319.818L203.074 320.27C201.167 314.368 199.332 308.649 197.553 303.156V302.945L197.708 302.789C202.027 298.439 205.234 293.111 207.055 287.257C208.705 281.906 209.187 276.262 208.467 270.709C207.827 265.773 206.241 261.007 203.794 256.673C201.685 252.95 198.964 249.609 195.745 246.789C193.09 244.558 190.151 242.687 187.005 241.226C184.625 240.199 182.145 239.419 179.606 238.896L176.782 238.43L174.735 238.275L173.492 238.19H173.069C173.209 238.175 173.351 238.175 173.492 238.19H174.749L176.796 238.275L179.62 238.684C182.191 239.169 184.704 239.921 187.118 240.93C190.318 242.373 193.31 244.239 196.014 246.479C199.291 249.286 202.07 252.628 204.231 256.363C206.748 260.743 208.383 265.573 209.046 270.582C209.826 276.221 209.378 281.962 207.733 287.413C205.9 293.388 202.644 298.829 198.245 303.269L198.329 302.902C200.108 308.395 201.958 314.114 203.878 320.002L204.147 320.863L203.342 320.453L185.537 311.431H185.847L184.576 311.897C180.424 313.358 176.025 313.991 171.628 313.761C167.361 313.598 163.161 312.64 159.245 310.937C151.775 307.737 145.56 302.177 141.553 295.108C139.709 291.843 138.362 288.321 137.557 284.659C137.336 283.781 137.171 282.89 137.063 281.991C136.95 281.101 136.766 280.225 136.724 279.35C136.342 274.326 136.873 269.274 138.291 264.439C139.183 261.534 140.42 258.747 141.976 256.137C144.611 251.612 148.178 247.699 152.439 244.657C155.658 242.381 159.232 240.654 163.015 239.546L165.232 238.981C165.884 238.83 166.544 238.712 167.209 238.628C168.239 238.437 169.282 238.324 170.329 238.289L172.264 238.219C172.484 238.189 172.705 238.175 172.927 238.176Z" fill="#6A3894"/>
<path d="M180.976 271.104H178.364L172.716 263.169V257.958C172.716 257.958 168.677 257.704 169.157 264.524C169.637 271.344 169.157 269.607 169.157 269.607C169.157 269.607 160.586 269.607 159.88 270.384C159.174 271.16 159.132 279.435 159.033 284.052C158.979 285.165 159.299 286.264 159.941 287.175C160.583 288.086 161.511 288.756 162.577 289.079C162.876 289.162 163.185 289.204 163.495 289.206C165.641 289.206 176.556 287.469 176.556 287.469H181.06L180.976 271.104Z" fill="#6A3894"/>
<path d="M188.445 269.706L186.835 287.554H182.374V270.073L188.445 269.706Z" fill="#6A3894"/>
<path d="M241.664 633.056V620.983L220.018 620.828L219.834 639.085L221.176 639.184C227.149 639.565 251.562 640.13 255.572 638.888C260.034 637.504 241.664 633.056 241.664 633.056Z" fill="#6A3894"/>
<path d="M256.08 637.758C256.08 637.956 247.975 638.125 237.993 638.125C228.01 638.125 219.905 637.956 219.905 637.758C219.905 637.56 228.01 637.391 237.993 637.391C247.975 637.391 256.08 637.56 256.08 637.758Z" fill="#263238"/>
<path d="M242.045 635.527C241.862 635.428 242.045 634.793 242.483 634.115C242.921 633.437 243.514 633.155 243.655 633.296C243.796 633.437 243.499 633.974 243.076 634.553C242.652 635.132 242.229 635.626 242.045 635.527Z" fill="#263238"/>
<path d="M243.429 636.318C243.231 636.318 243.33 635.527 243.753 634.779C244.177 634.03 244.742 633.579 244.897 633.692C245.052 633.804 244.798 634.44 244.403 635.104C244.008 635.767 243.612 636.388 243.429 636.318Z" fill="#263238"/>
<path d="M226.428 637.702C226.343 637.702 226.019 637.447 225.553 636.911C224.984 636.221 224.35 635.588 223.661 635.019C222.982 634.477 222.174 634.122 221.317 633.988C220.653 633.903 220.229 633.988 220.187 633.903C220.145 633.819 220.554 633.522 221.331 633.466C222.356 633.444 223.355 633.784 224.155 634.426C224.904 635.036 225.535 635.778 226.019 636.614C226.343 637.236 226.513 637.645 226.428 637.702Z" fill="#263238"/>
<path d="M242.116 633.254C242.215 633.423 241.847 633.847 241.226 634.073C240.605 634.299 240.054 634.214 240.026 634.073C239.998 633.932 240.435 633.635 240.972 633.437C241.509 633.24 242.003 633.084 242.116 633.254Z" fill="#263238"/>
<path d="M241.777 632.082C241.777 632.294 241.212 632.463 240.478 632.477C239.744 632.491 239.165 632.322 239.179 632.124C239.193 631.927 239.772 631.743 240.478 631.729C241.184 631.715 241.749 631.884 241.777 632.082Z" fill="#263238"/>
<path d="M294.967 633.056V620.983L273.321 620.828L273.137 638.902L274.479 639.001C280.452 639.382 304.879 640.13 308.875 638.888C313.337 637.504 294.967 633.056 294.967 633.056Z" fill="#6A3894"/>
<path d="M309.383 637.786C309.383 637.984 301.292 638.153 291.296 638.153C281.299 638.153 273.222 637.984 273.222 637.786C273.222 637.589 281.313 637.419 291.296 637.419C301.278 637.419 309.383 637.589 309.383 637.786Z" fill="#263238"/>
<path d="M295.348 635.527C295.179 635.428 295.348 634.793 295.786 634.115C296.224 633.437 296.817 633.155 296.958 633.296C297.099 633.437 296.802 633.974 296.379 634.553C295.955 635.132 295.532 635.626 295.348 635.527Z" fill="#263238"/>
<path d="M296.732 636.318C296.548 636.318 296.633 635.527 297.071 634.779C297.509 634.03 298.059 633.579 298.215 633.692C298.37 633.804 298.102 634.44 297.706 635.104C297.311 635.767 296.93 636.388 296.732 636.318Z" fill="#263238"/>
<path d="M279.731 637.702C279.647 637.702 279.336 637.447 278.856 636.911C278.287 636.221 277.653 635.588 276.964 635.019C276.286 634.477 275.478 634.122 274.62 633.988C273.97 633.903 273.533 633.988 273.49 633.903C273.448 633.819 273.857 633.522 274.634 633.466C275.659 633.444 276.659 633.784 277.458 634.426C278.211 635.032 278.843 635.775 279.322 636.614C279.647 637.236 279.816 637.645 279.731 637.702Z" fill="#263238"/>
<path d="M295.419 633.254C295.518 633.423 295.15 633.847 294.529 634.073C293.908 634.299 293.357 634.214 293.329 634.073C293.301 633.932 293.738 633.635 294.275 633.437C294.812 633.24 295.306 633.084 295.419 633.254Z" fill="#263238"/>
<path d="M295.108 632.082C295.108 632.294 294.543 632.463 293.809 632.477C293.075 632.491 292.51 632.322 292.524 632.124C292.538 631.927 293.103 631.743 293.809 631.729C294.515 631.715 295.108 631.884 295.108 632.082Z" fill="#263238"/>
<path d="M374.717 274.549C374.152 273.97 372.754 274.253 372.754 274.253C372.894 273.44 372.894 272.609 372.754 271.796C372.5 271.005 370.721 271.161 370.721 271.161C370.639 270.495 370.639 269.821 370.721 269.156C370.735 269.008 370.703 268.86 370.63 268.731C370.557 268.602 370.445 268.499 370.311 268.435C369.469 268.092 368.565 267.929 367.657 267.955C366.569 267.179 370.975 261.008 372.613 259.031C374.251 257.055 373.954 255.516 372.5 255.516C371.497 255.516 366.358 261.446 364.776 263.437C363.195 265.428 359.001 270.963 358.86 266.543C358.719 262.124 356.94 258.791 355.824 258.227C354.709 257.662 353.522 258.989 354.13 260.218C354.663 261.613 354.996 263.077 355.118 264.567C355.271 265.753 355.219 266.956 354.963 268.125C354.495 270.299 353.857 272.433 353.057 274.507H352.944C352.944 274.507 322.134 304.06 319.903 306.164C317.912 308.056 277.868 303.919 269.833 303.072C267.103 302.672 264.346 302.483 261.587 302.507C258.1 302.662 257.478 303.156 254.005 303.199C245.233 303.296 236.481 304.066 227.826 305.5C223.907 306.167 220.247 307.896 217.244 310.501C214.241 313.105 212.011 316.485 210.798 320.27C202.707 345.545 184.379 405.371 181.146 438.977C178.702 443.408 176.496 447.965 174.537 452.631C172.264 458.815 172.815 459.027 173.577 459.168C175.639 459.55 177.983 448.451 178.858 451.134C179.734 453.817 174.41 464.365 176.571 464.675C179.395 465.071 181.64 453.379 181.908 452.447C182.176 451.515 183.574 451.812 183.32 452.687C182.911 453.93 178.943 467.104 181.71 467.527C183.235 467.753 183.405 464.972 183.405 464.972C183.405 464.972 186.229 452.363 187.514 452.617C188.799 452.871 187.429 460.312 186.779 462.797C186.13 465.282 187.034 466.539 188.361 465.932C189.265 465.508 191.425 457.954 192.018 455.497C192.611 453.04 194.094 446.234 196.084 450.174C198.075 454.113 201.097 456.401 202.34 456.457C202.62 456.425 202.884 456.31 203.097 456.126C203.311 455.943 203.465 455.699 203.54 455.427C203.614 455.156 203.606 454.868 203.515 454.601C203.424 454.334 203.256 454.1 203.032 453.93C201.963 452.886 201.045 451.698 200.306 450.4C199.648 449.389 199.17 448.271 198.894 447.096C198.325 444.754 197.994 442.36 197.906 439.951L197.68 438.539C200.843 422.88 209.95 376.919 223.096 347.564L228.49 358.662L230.834 366.88L216.46 402.364L277.769 401.559L268.619 366.344L279.731 329.631C291.747 329.9 322.6 330.352 327.739 328.022C334.206 325.198 367.657 282.951 367.657 282.951C369.837 281.256 371.925 279.447 373.912 277.529C373.912 277.529 375.945 275.82 374.717 274.549Z" fill="#FFBE9D"/>
<path d="M213.763 376.143C215.542 370.071 224.677 340.052 224.677 340.052C224.677 340.052 229.168 364.522 227.981 367.473C226.89 369.999 225.601 372.436 224.127 374.759C213.763 390.531 215.118 398.424 215.118 398.424L277.74 396.518C277.882 387.763 272.699 367.402 271.626 364.155C270.553 360.907 274.126 350.275 274.126 350.275C274.126 350.275 281.186 343.088 280.931 339.388C280.797 336.065 280.386 332.759 279.703 329.504L317.827 330.916L316.627 305.077L261.869 299.598C259.963 304.978 242.723 302.337 242.723 302.337C224.113 302.959 222.955 306.376 215.217 312.391C207.479 318.406 194.672 370.029 194.672 370.029L213.763 376.143Z" fill="#6A3894"/>
<path d="M250.785 370.029C249.7 370.223 248.595 370.28 247.495 370.198C245.448 370.198 242.638 370.057 239.546 369.746C236.454 369.436 233.658 368.998 231.667 368.603C230.569 368.461 229.493 368.186 228.462 367.784C229.566 367.784 230.667 367.888 231.752 368.094C233.757 368.348 236.538 368.701 239.616 369.012C242.695 369.323 245.49 369.535 247.51 369.676C248.61 369.69 249.707 369.808 250.785 370.029Z" fill="#263238"/>
<path d="M255.078 364.706C253.992 365.237 252.844 365.631 251.661 365.878C246.027 367.358 240.215 368.047 234.392 367.925C233.187 367.964 231.982 367.85 230.805 367.586C231.995 367.436 233.193 367.375 234.392 367.402C236.609 367.332 239.659 367.177 243.019 366.781C246.38 366.386 249.373 365.821 251.491 365.369C252.668 365.055 253.867 364.833 255.078 364.706Z" fill="#263238"/>
<path d="M276.145 340.956C276.116 342.032 275.969 343.102 275.707 344.147C275.34 346.109 274.775 348.792 274.055 351.729C273.335 354.666 272.643 357.377 272.022 359.213C271.772 360.263 271.402 361.282 270.92 362.249C270.999 361.175 271.198 360.114 271.513 359.086C272.05 356.883 272.657 354.341 273.335 351.56C274.013 348.778 274.662 346.236 275.199 344.034C275.39 342.974 275.708 341.94 276.145 340.956Z" fill="#263238"/>
<path d="M214.426 372.542C211.16 372.038 207.936 371.287 204.782 370.297C201.56 369.544 198.398 368.552 195.322 367.332C198.587 367.844 201.81 368.595 204.966 369.577C208.189 370.328 211.351 371.319 214.426 372.542Z" fill="#263238"/>
<path d="M280.381 329.194C279.848 329.285 279.304 329.285 278.771 329.194C277.296 329.042 275.848 328.696 274.465 328.163C272.155 327.295 270.052 325.953 268.291 324.224C266.531 322.495 265.151 320.417 264.242 318.123C263.236 315.6 262.807 312.884 262.985 310.174C263.048 307.938 263.717 305.762 264.92 303.876C265.766 302.606 267.029 301.672 268.492 301.236C268.883 301.128 269.287 301.076 269.692 301.081C269.974 301.081 270.116 301.081 270.116 301.081C270.116 301.081 269.523 301.081 268.577 301.462C267.235 301.958 266.097 302.887 265.343 304.102C263.423 307.124 262.886 312.645 264.934 317.799C265.887 320.229 267.378 322.411 269.297 324.181C270.869 325.629 272.679 326.795 274.648 327.626C276.496 328.357 278.419 328.882 280.381 329.194Z" fill="#263238"/>
<path d="M313.295 330.408C312.941 326.078 312.828 321.732 312.956 317.389C312.845 313.05 312.977 308.709 313.351 304.385C313.705 308.71 313.818 313.052 313.69 317.389C313.809 321.733 313.677 326.08 313.295 330.408Z" fill="#263238"/>
<path d="M261.502 301.18C261.658 298.031 261.982 294.473 261.982 294.473C261.982 294.473 269.777 293.611 270.243 285.563C270.709 277.515 270.243 258.947 270.243 258.947L256.123 251.717L240.449 264.044L242.864 304.286L257.238 305.204C258.337 305.234 259.403 304.828 260.202 304.073C261.002 303.319 261.469 302.278 261.502 301.18Z" fill="#FFBE9D"/>
<path d="M262.9 279.195C262.9 279.195 262.9 279.35 262.773 279.534C262.668 279.667 262.532 279.772 262.377 279.841C262.222 279.91 262.053 279.94 261.884 279.929C260.98 279.929 260.104 278.884 259.794 277.67C259.646 277.081 259.646 276.465 259.794 275.877C259.823 275.62 259.915 275.374 260.063 275.162C260.211 274.95 260.41 274.778 260.641 274.662C260.831 274.584 261.044 274.584 261.234 274.662C261.375 274.732 261.489 274.846 261.559 274.987C261.658 275.227 261.559 275.382 261.559 275.368C261.559 275.354 261.559 275.227 261.418 275.086C261.344 274.985 261.235 274.914 261.113 274.888C260.99 274.862 260.863 274.882 260.754 274.945C260.581 275.049 260.437 275.196 260.336 275.372C260.234 275.547 260.179 275.745 260.175 275.947C260.056 276.472 260.056 277.018 260.175 277.543C260.457 278.644 261.22 279.534 261.898 279.618C262.03 279.636 262.165 279.627 262.294 279.59C262.423 279.554 262.543 279.491 262.646 279.407C262.816 279.294 262.872 279.181 262.9 279.195Z" fill="#EB996E"/>
<path d="M275.086 254.598C273.999 250.898 270.059 249.063 266.473 248.046C261.008 246.493 255.106 245.815 249.769 247.778C244.431 249.74 238.021 253.186 238.021 259.074C234.872 258.82 233.065 261.573 231.822 264.99C231.028 267.072 230.552 269.262 230.41 271.485C230.015 279.195 227.854 289.841 222.856 295.489C220.032 298.638 216.121 300.812 214.511 304.738C213.099 308.141 213.833 312.179 212.52 315.624C211.348 318.66 208.764 320.821 206.872 323.461C204.945 326.456 203.81 329.893 203.575 333.447C203.341 337.001 204.014 340.557 205.531 343.78C207.059 346.92 209.21 349.716 211.854 351.998C214.497 354.28 217.578 356 220.907 357.052C227.503 359.059 234.536 359.128 241.17 357.25C246.148 356.06 250.792 353.757 254.753 350.515C258.806 347.205 261.59 342.596 262.632 337.468C263.635 331.707 262.025 325.847 260.825 320.115C257.069 301.999 258.142 301.053 262.886 284.236C262.999 283.939 263.056 283.628 263.14 283.332C263.225 283.035 263.267 282.894 263.324 282.668C263.459 282.003 263.53 281.327 263.536 280.649C262.843 280.907 262.091 280.961 261.368 280.806C260.645 280.651 259.981 280.293 259.455 279.774C258.928 279.22 258.56 278.534 258.391 277.788C258.222 277.042 258.258 276.265 258.495 275.538C258.828 274.743 259.324 274.026 259.952 273.435C260.58 272.844 261.324 272.391 262.138 272.107C263.705 271.457 265.385 271.118 266.924 270.398C270.186 268.845 272.445 265.625 273.984 262.251C275.25 259.912 275.64 257.199 275.086 254.598Z" fill="#263238"/>
<path d="M263.465 279.576C263.764 280.017 264.01 280.491 264.199 280.988C264.623 281.877 265.188 283.134 265.809 284.589L265.922 284.857H265.626L264.214 284.984C263.239 284.984 262.42 285.167 261.46 285.153C261.377 285.135 261.299 285.095 261.235 285.038C261.171 284.981 261.122 284.909 261.093 284.829C261.051 284.7 261.051 284.562 261.093 284.433C261.126 284.243 261.168 284.054 261.22 283.868L261.474 282.866C261.602 282.197 261.801 281.544 262.067 280.917C262.041 281.599 261.942 282.276 261.771 282.936L261.573 283.939C261.503 284.278 261.375 284.8 261.573 284.758C262.279 284.758 263.282 284.603 264.214 284.546L265.626 284.419L265.442 284.73C264.835 283.318 264.327 281.99 264.03 281.073C263.77 280.604 263.58 280.1 263.465 279.576Z" fill="#6A3894"/>
<path d="M215.118 398.424L277.74 396.518L304.992 502.898L299.979 624.923H266.868L270.92 505.496L246.705 431.437L250.432 629.653L216.968 630.147L213.452 443.834C213.297 438.652 211.602 426.975 212.238 421.835L215.118 398.424Z" fill="#263238"/>
<path d="M255.035 432.947C254.01 433.012 252.981 432.95 251.971 432.764C250.079 432.538 247.495 432.143 244.657 431.578C241.819 431.013 239.278 430.364 237.442 429.841C236.461 429.625 235.511 429.284 234.618 428.824C234.618 428.613 239.221 429.714 244.869 430.858C250.517 432.001 255.064 432.736 255.035 432.947Z" fill="#455A64"/>
<path d="M299.641 618.23C299.641 618.428 292.143 618.597 282.894 618.597C273.646 618.597 266.134 618.428 266.134 618.23C266.134 618.032 273.632 617.863 282.894 617.863C292.157 617.863 299.641 618.018 299.641 618.23Z" fill="#455A64"/>
<path d="M250.136 624.499C250.136 624.711 242.85 624.867 233.869 624.867C224.889 624.867 217.617 624.711 217.617 624.499C217.617 624.288 224.903 624.132 233.869 624.132C242.836 624.132 250.136 624.302 250.136 624.499Z" fill="#455A64"/>
<path d="M245.815 623.991C245.617 623.991 244.742 580.685 243.852 527.269C242.963 473.853 242.44 430.519 242.624 430.519C242.808 430.519 243.711 473.811 244.587 527.255C245.462 580.699 246.027 623.991 245.815 623.991Z" fill="#455A64"/>
<path d="M295.193 618.23C295.177 618.037 295.177 617.844 295.193 617.651V615.957C295.193 614.432 295.306 612.243 295.391 609.462C295.588 603.814 295.871 595.61 296.224 585.556C296.986 565.337 298.059 537.464 299.231 506.696C299.231 506.4 299.231 506.117 299.231 505.863V505.962C291.818 476.31 285.111 449.397 280.24 429.926L274.592 406.896C273.942 404.199 273.448 402.095 273.095 400.627C272.926 399.935 272.813 399.398 272.714 398.989C272.659 398.805 272.626 398.616 272.615 398.424C272.688 398.602 272.745 398.786 272.784 398.975C272.897 399.37 273.039 399.907 273.236 400.584C273.617 401.996 274.168 404.143 274.874 406.825C276.286 412.276 278.277 420.127 280.762 429.799C285.676 449.256 292.454 476.098 299.965 505.793V505.891C299.965 506.146 299.965 506.442 299.965 506.724C298.709 537.492 297.565 565.351 296.732 585.571C296.294 595.638 295.927 603.785 295.673 609.462C295.532 612.286 295.419 614.432 295.348 615.957C295.348 616.677 295.263 617.242 295.249 617.651C295.251 617.846 295.233 618.04 295.193 618.23Z" fill="#455A64"/>
<path d="M284.391 503.378C282.013 504.16 279.562 504.704 277.077 505.002C274.027 505.524 271.429 505.891 270.257 505.948V505.665C270.638 505.778 270.836 505.849 270.836 505.905C270.836 505.962 270.596 505.905 270.2 505.905H269.353L270.2 505.651C271.302 505.326 273.9 504.79 276.95 504.239C279.396 503.709 281.888 503.42 284.391 503.378Z" fill="#455A64"/>
<path d="M283.812 507.43C281.61 507.531 279.403 507.432 277.218 507.134C275.013 507.089 272.815 506.848 270.652 506.414C275.065 506.054 279.507 506.397 283.812 507.43Z" fill="#455A64"/>
<path opacity="0.2" d="M214.85 400.669C215.592 401.621 216.526 402.407 217.592 402.974C218.657 403.54 219.83 403.876 221.035 403.959C223.557 404.258 226.108 404.21 228.617 403.818C244.784 402.025 261.912 400.373 277.741 396.518C257.252 397.662 235.606 397.28 215.118 398.424L214.907 400.175" fill="black"/>
<g opacity="0.2">
<path d="M235.959 429.544L247.509 474.361L246.705 431.437L235.959 429.544Z" fill="black"/>
</g>
</svg>
