<svg width="57" height="57" viewBox="0 0 57 57" fill="none" xmlns="http://www.w3.org/2000/svg">
<path d="M28.7182 13.0294L29.553 14.5887C29.7407 14.8765 29.9441 15.1312 30.1836 15.3684C30.8857 16.058 31.5403 16.794 32.1426 17.5713C33.5572 19.4184 34.5113 21.4696 35.1927 23.6881C35.6013 25.0432 35.8232 26.4334 35.8399 27.8391C35.9083 32.0418 34.4595 35.6504 31.5385 38.6495C31.0634 39.125 30.5501 39.5614 30.0037 39.9541C29.7143 39.9541 29.5775 39.7334 29.4582 39.5302C29.241 39.1535 29.0965 38.7397 29.032 38.3102C28.9293 37.8017 28.8619 37.2933 28.8951 36.7683V36.5311C28.8716 36.4806 28.6165 13.149 28.7182 13.0294Z" fill="#599636"/>
<path d="M28.7182 12.9779C28.684 12.9099 28.6498 12.9614 28.6156 12.9944C28.6322 13.3347 28.513 13.638 28.3262 13.9277C28.1209 14.2155 27.8492 14.4361 27.5764 14.6733C26.0612 15.978 24.8685 17.5538 23.9134 19.3163C22.6426 21.6884 21.9876 24.2305 21.8018 26.9069C21.7168 27.8722 22.1088 31.2786 22.4148 32.2615C23.2496 34.8707 24.7493 37.0571 26.6917 38.9547C27.1688 39.4116 27.6791 39.8355 28.207 40.2428C28.3604 40.2428 28.3771 40.1067 28.4123 40.0056C28.4795 39.7893 28.5308 39.5683 28.5657 39.3446L28.9079 36.8034L28.7182 12.9779Z" fill="#6CAC48"/>
<path d="M29.5532 40.9865C29.5874 40.5977 29.7751 40.2749 29.9794 39.9531C29.7741 39.8686 29.6216 39.7004 29.5023 39.5128C29.3995 39.3351 29.3144 39.1479 29.2482 38.9538C29.0096 38.2422 28.9588 37.4956 28.8904 36.7684V36.328C28.8053 36.3961 28.7877 36.9716 28.7877 37.0571C28.738 37.8257 28.6354 38.5899 28.4808 39.3446C28.4299 39.6498 28.3957 39.9541 28.207 40.2253C28.207 40.2594 28.207 40.2934 28.2237 40.3439C28.5306 41.2422 28.6147 42.157 28.6665 43.0893V43.4295C28.6665 43.8359 28.6499 43.7503 28.9891 43.8864C29.126 43.937 29.2785 43.9545 29.4153 44.0556C29.518 44.0556 29.5346 43.971 29.5346 43.903L29.4838 43.344V41.7847C29.4671 41.5125 29.518 41.2422 29.5522 40.9875L29.5532 40.9865Z" fill="#C2BFBF"/>
</svg>
