<svg width="32" height="31" viewBox="0 0 32 31" fill="none" xmlns="http://www.w3.org/2000/svg">
<path fill-rule="evenodd" clip-rule="evenodd" d="M15.0007 0.767822C14.8206 0.767822 14.6533 0.814492 14.4989 0.876715C14.827 1.14117 15.0072 1.49118 15.0972 1.88786C15.1037 1.94231 15.1165 1.9812 15.123 2.03564C15.1294 2.08231 15.1358 2.12898 15.1358 2.17565C15.1616 2.86012 14.9879 2.94568 14.8656 3.35013C14.6791 3.87127 14.7305 4.43128 14.9557 4.88241C14.975 4.93686 15.0007 4.99908 15.0329 5.05353C14.7884 3.08568 16.1458 2.79011 16.3967 2.17565C16.416 1.63896 16.0493 1.28117 15.7598 1.03228C15.4832 0.830047 15.2323 0.767822 15.0007 0.767822ZM17.0465 1.21117C17.0207 1.39007 17.04 1.3434 17.0336 1.43674C17.0272 1.49896 17.0272 1.57674 17.0208 1.63896C17.0079 1.70119 16.995 1.76341 16.9757 1.82564C16.9629 1.88786 16.9436 1.95009 16.9243 2.01231C16.8985 2.07454 16.8792 2.12898 16.8535 2.19121C16.8342 2.22233 16.8213 2.25343 16.802 2.28454C16.7892 2.30788 16.7763 2.33121 16.7635 2.35454C16.7313 2.40899 16.6991 2.46344 16.667 2.5101C16.6283 2.55677 16.5962 2.61122 16.5511 2.65011V2.6579C16.5126 2.69679 16.474 2.74346 16.4289 2.78235C16.2938 2.9068 16.1394 3.00013 15.9979 3.1168C15.9529 3.15569 15.9078 3.18681 15.8692 3.23348C15.8242 3.27236 15.7856 3.31125 15.747 3.35792C15.702 3.40459 15.6698 3.45126 15.6312 3.50571C15.599 3.55238 15.5604 3.60682 15.5347 3.66127C15.5025 3.71571 15.4704 3.77016 15.4446 3.82461C15.4189 3.88683 15.3996 3.94128 15.3739 4.0035C15.3546 4.06572 15.3353 4.12017 15.3224 4.18239C15.3031 4.2524 15.2902 4.31462 15.2774 4.37685C15.2709 4.40797 15.2709 4.44685 15.2645 4.47796C15.2581 4.50909 15.2581 4.54019 15.2517 4.5713C15.2517 4.63352 15.2452 4.70353 15.2452 4.76575C15.2452 4.81242 15.2452 4.85909 15.2517 4.90576C15.2517 4.96798 15.2581 5.0302 15.271 5.10021C15.2774 5.16243 15.2903 5.22465 15.3031 5.28688C15.3224 5.3491 15.3353 5.41133 15.3546 5.47355C15.3674 5.51244 15.3868 5.55133 15.3996 5.58244L13.92 4.8902C13.6691 4.80464 13.4246 4.72686 13.1737 4.65686C13.0386 4.61797 12.9035 4.57908 12.7684 4.54019C12.3824 4.44685 11.99 4.37685 11.5976 4.33018C11.5847 4.33018 11.5783 4.32239 11.5654 4.32239C11.1794 4.27572 10.7999 4.25239 10.4139 4.25239C10.1308 4.25239 9.84774 4.26793 9.57112 4.29128C9.17869 4.3224 8.78626 4.38462 8.39384 4.4624C8.29734 4.47794 8.20084 4.50129 8.10434 4.52462C7.90491 4.57129 7.71191 4.62574 7.52535 4.68018C7.42885 4.71131 7.33235 4.74241 7.23585 4.77352C7.13936 4.82019 7.04929 4.87463 6.95922 4.9213C6.88846 4.96019 6.81769 4.99908 6.74693 5.03797C6.73407 5.04576 6.72119 5.04576 6.71476 5.05352C6.65043 5.09241 6.59253 5.12352 6.53463 5.16241C6.51533 5.1702 6.50246 5.17795 6.4896 5.18575C6.41883 5.22463 6.34807 5.2713 6.29017 5.31019C6.24514 5.33353 6.2001 5.36464 6.16151 5.38798C6.14221 5.40352 6.11647 5.4191 6.10361 5.42686C6.04571 5.46575 5.98781 5.50464 5.93634 5.54354C5.87844 5.58242 5.82698 5.62131 5.78194 5.6602C5.73691 5.6991 5.69188 5.73021 5.65328 5.76909C5.64683 5.77688 5.64042 5.77688 5.63398 5.78464C5.59538 5.81576 5.55035 5.85464 5.51175 5.89354C5.51175 5.89354 5.5053 5.90132 5.49889 5.90908C5.46673 5.9402 5.43456 5.9713 5.40239 6.00241C5.38954 6.0102 5.37665 6.02575 5.36379 6.03354C5.33163 6.06466 5.29946 6.10354 5.2673 6.13465C5.26085 6.1502 5.248 6.15799 5.24155 6.16578C5.20295 6.21245 5.16435 6.25134 5.12575 6.29801C5.11931 6.29801 5.11931 6.30579 5.1129 6.31355C5.0743 6.35244 5.0357 6.39911 4.9971 6.44578C4.99066 6.45357 4.99066 6.46132 4.98424 6.46132C4.95208 6.50021 4.91991 6.5391 4.88774 6.58577C4.87489 6.60131 4.85558 6.61689 4.84271 6.63243C4.81055 6.6791 4.77195 6.72577 4.73335 6.77244C4.7269 6.78799 4.71405 6.79578 4.7076 6.81133C4.65614 6.87356 4.61111 6.93578 4.55964 6.99801C4.5532 7.0058 4.54678 7.01355 4.54034 7.02134C4.43741 7.15357 4.32804 7.28579 4.21225 7.40246C4.09645 7.52691 3.97422 7.64358 3.85198 7.7447C3.72332 7.85359 3.60109 7.94693 3.46599 8.04026C3.33733 8.12582 3.20223 8.2036 3.0607 8.27361C2.9256 8.34361 2.78407 8.40583 2.64254 8.46028C2.37234 8.53028 2.09571 8.66251 1.85768 8.68584C1.80622 8.68584 1.74832 8.70139 1.69685 8.70917C1.63895 8.72472 1.58749 8.7403 1.53602 8.75584C1.48456 8.77918 1.43309 8.80251 1.38162 8.82584C1.33016 8.84918 1.27869 8.88029 1.22723 8.91141C1.18219 8.95029 1.13073 8.98141 1.08569 9.0203C1.04066 9.05919 0.99563 9.10585 0.95703 9.15252C0.911999 9.19142 0.866966 9.24586 0.828366 9.29253C0.789766 9.34698 0.751167 9.39364 0.719001 9.44809C0.686836 9.51031 0.648236 9.56476 0.622502 9.62699C0.590337 9.68143 0.558171 9.74366 0.532437 9.80588C0.506694 9.87588 0.480972 9.93811 0.461672 10.0081C0.442372 10.0703 0.423072 10.1403 0.403772 10.2103C0.390916 10.2726 0.378029 10.3348 0.371607 10.397C0.371607 10.4048 0.365164 10.4126 0.365164 10.4203C0.352308 10.4903 0.352307 10.5837 0.345864 10.6304C0.339421 10.6848 0.333008 10.7315 0.333008 10.7859C0.333008 10.817 0.333008 10.8559 0.339451 10.887C0.345894 10.9415 0.352307 10.9881 0.365194 11.0348C0.378051 11.0815 0.390937 11.1281 0.410225 11.1748V11.1826C0.429525 11.2293 0.455259 11.2759 0.48099 11.3226C0.506733 11.3693 0.532458 11.416 0.564624 11.4626C0.596789 11.5015 0.635389 11.5482 0.673988 11.5871C0.712588 11.6337 0.751188 11.6726 0.796219 11.7115C0.950617 11.8749 0.989217 11.9293 1.18865 12.0537C1.22081 12.0771 1.25298 12.0926 1.29158 12.116C1.29802 12.116 1.30444 12.1238 1.31088 12.1238C1.31088 12.1393 1.31088 12.1471 1.31732 12.1627C1.32377 12.2249 1.33662 12.2871 1.34949 12.3493C1.36235 12.4193 1.38166 12.4816 1.40096 12.536C1.42026 12.5827 1.43312 12.6293 1.45242 12.676C1.45887 12.6916 1.46528 12.7071 1.47172 12.7149C1.49747 12.7771 1.52319 12.8316 1.54892 12.886C1.58109 12.9405 1.61325 12.9949 1.64542 13.0494C1.67758 13.096 1.71618 13.1505 1.75478 13.1971C1.79338 13.2438 1.83198 13.2827 1.87702 13.3294C1.87702 13.3294 1.88346 13.3372 1.88987 13.3372C1.92847 13.3761 1.96707 13.4149 2.00567 13.4461C2.0507 13.4849 2.09574 13.5161 2.1472 13.5472C2.19224 13.5783 2.2437 13.6094 2.29517 13.6327C2.33377 13.6561 2.3788 13.6716 2.42383 13.6872C2.43027 13.695 2.43669 13.695 2.44957 13.7027C2.47532 13.7105 2.50747 13.7183 2.5332 13.7261C2.5139 14.1461 2.50746 14.5427 2.55895 14.6828C2.61684 14.8383 2.89991 14.3639 3.18297 13.8194C3.14437 14.3561 3.11864 14.9861 3.18297 15.1728C3.25374 15.3672 3.63973 14.7605 3.97426 14.0916C8.53542 12.816 12.6977 16.6273 13.1352 22.0097C13.0515 21.1696 12.1959 20.703 11.8035 20.8196C11.6105 21.3952 11.2824 22.1341 10.7549 22.593C10.7999 22.0797 10.7806 21.5508 10.6906 21.0374C10.549 21.753 10.2724 22.4219 9.89283 22.9975C9.28167 23.0519 8.67051 22.6941 8.34885 22.1575C8.32311 22.1341 8.31669 22.0875 8.29739 22.0563C8.27809 22.0019 8.25879 21.9475 8.24592 21.893C8.22662 21.8386 8.21376 21.7841 8.20732 21.7297C8.20088 21.6752 8.20088 21.6208 8.20088 21.5585C8.20088 21.5197 8.20088 21.4808 8.20088 21.4419C8.20732 21.3874 8.22018 21.333 8.23304 21.2785C8.2459 21.2241 8.25879 21.1696 8.27808 21.1152C8.30382 21.0608 8.32311 21.0063 8.35528 20.9519C8.46464 20.5785 8.46464 20.2752 8.26521 20.0963C8.22661 20.0651 8.18801 20.0418 8.14298 20.0185C8.11723 20.0107 8.08508 19.9952 8.05935 19.9874C8.04005 19.9796 8.02718 19.9718 8.00788 19.964C7.96285 19.9485 7.91781 19.9329 7.87278 19.9251C7.82775 19.9096 7.78272 19.9018 7.73768 19.9018C7.69265 19.894 7.64119 19.8863 7.59615 19.8863C7.56399 19.8863 7.53182 19.8941 7.49966 19.8941C7.44819 19.8941 7.40316 19.9019 7.35812 19.9174C7.31309 19.9252 7.26806 19.9329 7.22303 19.9485C7.178 19.9641 7.13296 19.9796 7.08793 20.003C7.0429 20.0263 7.0043 20.0496 6.95926 20.073C6.92067 20.0963 6.88207 20.1274 6.83703 20.1507C5.33809 21.333 6.23231 24.102 7.25519 24.9031C6.8692 24.9887 6.47677 25.0898 6.36741 25.1909C6.36096 25.1987 6.35455 25.2065 6.35455 25.2065C6.63118 25.4087 6.92068 25.5798 7.22304 25.7276C7.63476 25.8909 8.07222 26.0387 8.26522 26.1009V26.1087C8.79918 26.241 9.33957 26.2876 9.88639 26.2487C12.7363 26.0076 15.0716 23.3864 15.4962 19.933C15.509 20.003 15.5219 20.0652 15.5348 20.1352C15.5541 20.2752 15.5798 20.423 15.5927 20.5708V20.5785C15.6055 20.6486 15.612 20.7186 15.6184 20.7808V20.8119C15.6249 20.8819 15.6313 20.9519 15.6313 21.0141C15.6377 21.0997 15.6441 21.1852 15.6441 21.2708V21.3953C15.6441 21.4342 15.6506 21.4808 15.6506 21.5197C15.6506 21.5664 15.6441 21.613 15.6441 21.6597V21.7686C15.6441 21.8231 15.6377 21.8697 15.6377 21.9242C15.6377 21.9553 15.6377 21.9864 15.6312 22.0253C15.6312 22.0797 15.6248 22.1342 15.6248 22.1964C15.6183 22.2197 15.6183 22.2431 15.6183 22.2664C15.6119 22.3286 15.6055 22.3831 15.599 22.4453C15.599 22.4686 15.599 22.492 15.5926 22.5153C15.5861 22.5931 15.5733 22.6631 15.5669 22.7409V22.7487V22.7564C15.554 22.8265 15.5411 22.9042 15.5283 22.9742V22.9976C15.5154 23.0676 15.5025 23.1376 15.4897 23.2076C15.4897 23.2154 15.4832 23.2309 15.4832 23.2387C15.4704 23.3087 15.4575 23.3787 15.4382 23.4487V23.472C15.4189 23.5498 15.3996 23.6198 15.3867 23.6898C15.3803 23.6976 15.3803 23.7054 15.3803 23.7054C15.361 23.7832 15.3417 23.8609 15.3224 23.9387C15.2966 24.0165 15.2773 24.0865 15.2516 24.1643C15.2259 24.2421 15.2066 24.3198 15.1808 24.3898C15.1551 24.4676 15.1294 24.5376 15.1037 24.6154H15.0972C15.0715 24.6854 15.0457 24.7632 15.0136 24.8332C15.0071 24.8565 15.0007 24.8721 14.9943 24.8876C14.9878 24.8954 14.9878 24.9032 14.9814 24.911C14.5633 25.9299 13.9457 26.8244 13.1737 27.5244C13.1222 27.5633 13.0707 27.6099 13.0193 27.6566C13.0064 27.6722 12.9871 27.68 12.9742 27.6955C12.9292 27.7344 12.8842 27.7733 12.8327 27.8122L12.852 27.8588H12.8585C12.9485 27.8433 13.0386 27.8277 13.1286 27.8122H13.1351C13.3024 27.7811 13.4696 27.7422 13.6369 27.7033C13.6819 27.6955 13.7334 27.68 13.7784 27.6644C13.8106 27.6566 13.8363 27.6488 13.8685 27.6411C13.9135 27.6333 13.9585 27.6177 14.0036 27.6099C14.0422 27.5944 14.0808 27.5866 14.1194 27.571C14.7627 27.3844 15.3867 27.1277 15.985 26.8244C14.9621 28.5122 13.5918 29.8733 11.99 30.7678C12.7298 30.7056 13.4696 30.5578 14.1837 30.3089C16.7763 29.3833 18.9572 27.2755 20.2631 24.4365C19.9993 26.2332 19.4075 27.9444 18.5326 29.4378C19.1566 28.94 19.7292 28.3644 20.2502 27.711C21.6913 25.891 22.637 23.5809 22.9586 21.0997C23.1774 22.3286 23.2417 23.5965 23.1452 24.8487C27.79 17.0162 23.5312 8.89595 21.7492 6.75699C21.7427 6.74144 21.7363 6.73365 21.7363 6.7181C21.7299 6.72589 21.7299 6.72589 21.7299 6.73364C21.7299 6.72585 21.7299 6.72585 21.7234 6.7181C21.7234 6.81144 21.717 6.90477 21.7106 6.99811C21.6913 7.177 21.672 7.34812 21.6462 7.51924C21.6141 7.69035 21.5755 7.86147 21.5369 8.03259C21.4918 8.19592 21.4404 8.36704 21.3825 8.53038C21.3246 8.68594 21.2603 8.84928 21.1895 9.00484C21.1187 9.15263 21.0415 9.30819 20.9579 9.44819C20.8743 9.59598 20.7842 9.73598 20.6941 9.8682C20.5976 10.0082 20.4947 10.1327 20.3918 10.2571C20.3274 10.3271 20.2695 10.3893 20.2052 10.4516C20.1537 10.506 20.1087 10.5527 20.0572 10.6071C19.9414 10.716 19.8256 10.8171 19.697 10.9105C19.5747 11.0038 19.4461 11.0971 19.3174 11.1749C19.1823 11.2527 19.0472 11.3227 18.9121 11.3927C18.777 11.4549 18.6355 11.5094 18.494 11.556C18.3524 11.6027 18.2045 11.6416 18.0629 11.6727C17.915 11.7038 17.767 11.7194 17.6255 11.7349C17.5225 11.7427 17.4196 11.7505 17.3167 11.7505C17.1687 11.7505 17.0208 11.7349 16.8792 11.7194C16.7313 11.7038 16.5833 11.6805 16.4418 11.6416C16.2938 11.6105 16.1523 11.5638 16.0107 11.5094H16.0043C16.1458 11.4938 16.2874 11.4782 16.4289 11.4471C16.5769 11.416 16.7184 11.3771 16.8599 11.3305C17.0014 11.2838 17.143 11.2293 17.2781 11.1671C17.4196 11.1049 17.5547 11.0271 17.6834 10.9493C17.8185 10.8715 17.9407 10.786 18.0694 10.6927C18.1916 10.5915 18.3138 10.4904 18.4296 10.3815C18.5454 10.2726 18.6548 10.156 18.7577 10.0315C18.8671 9.91485 18.9636 9.78262 19.0601 9.65039C19.1566 9.51039 19.2466 9.37039 19.3303 9.23038C19.3431 9.20704 19.356 9.17594 19.3689 9.1526C19.4332 9.02815 19.4975 8.9037 19.5554 8.77925C19.6262 8.62369 19.6905 8.46813 19.7484 8.30479C19.8063 8.14145 19.8578 7.97811 19.9028 7.807C19.9479 7.64366 19.98 7.47254 20.0122 7.30143C20.0379 7.12253 20.0637 6.95141 20.0765 6.7803C20.0894 6.6014 20.1023 6.42251 20.1023 6.25139C20.1023 6.12694 20.0958 6.00249 20.0894 5.87804C20.0766 5.69915 20.0573 5.52803 20.038 5.35691C20.0122 5.17802 19.9801 5.0069 19.9415 4.83578C19.8964 4.67245 19.8514 4.50133 19.7999 4.33799C19.7485 4.17465 19.6841 4.01131 19.6198 3.85575C19.549 3.70019 19.4783 3.54463 19.4011 3.39685C19.3174 3.24906 19.2338 3.10906 19.1437 2.96905C19.0472 2.83683 18.9507 2.7046 18.8478 2.57237C18.7963 2.51015 18.7384 2.44015 18.6805 2.37792C18.391 2.10569 18.0887 1.84901 17.7863 1.61567C17.7413 1.58455 17.7027 1.56123 17.6577 1.53789C17.4454 1.37455 17.2459 1.28895 17.0465 1.21117Z" fill="#E0234E"/>
</svg>
