<svg width="56" height="57" viewBox="0 0 56 57" fill="none" xmlns="http://www.w3.org/2000/svg">
<path d="M19.7852 24.0323H25.653V24.4965H20.323V27.9898H25.3352V28.4539H20.323V32.2892H25.7141V32.7534H19.7852V24.0323ZM26.1787 24.0323H26.8021L29.5649 27.8676L32.3888 24.0323L36.2297 19.1606L29.9194 28.2707L33.1712 32.7534H32.5233L29.5649 28.6738L26.5943 32.7534H25.9586L29.2348 28.2707L26.1787 24.0323ZM33.4034 24.4965V24.0323H40.0903V24.4965H37.0097V32.7534H36.4718V24.4965H33.4034Z" fill="white"/>
<path d="M12.4443 24.0322H13.1167L22.3881 37.8394L18.5567 32.7532L13.0067 24.6918L12.9822 32.7532H12.4443V24.0322Z" fill="white"/>
<path d="M40.0361 32.1492C40.1473 32.1492 40.2284 32.0644 40.2284 31.9549C40.2284 31.8454 40.1473 31.7607 40.0361 31.7607C39.9262 31.7607 39.8438 31.8454 39.8438 31.9549C39.8438 32.0644 39.9262 32.1492 40.0361 32.1492ZM40.5646 31.6381C40.5646 31.9615 40.7988 32.1727 41.1402 32.1727C41.5039 32.1727 41.7237 31.9549 41.7237 31.5769V30.2458H41.4307V31.5756C41.4307 31.7855 41.3247 31.8976 41.1376 31.8976C40.9702 31.8976 40.8563 31.7933 40.8524 31.6381H40.5646ZM42.107 31.6212C42.128 31.9575 42.4092 32.1727 42.8279 32.1727C43.2753 32.1727 43.5553 31.9471 43.5553 31.5873C43.5553 31.3044 43.3957 31.148 43.0084 31.058L42.8004 31.0072C42.5545 30.9498 42.455 30.8729 42.455 30.7386C42.455 30.5691 42.6094 30.4583 42.841 30.4583C43.0608 30.4583 43.2125 30.5665 43.24 30.7399H43.5252C43.5082 30.4231 43.2282 30.2002 42.8449 30.2002C42.4328 30.2002 42.1581 30.4231 42.1581 30.7582C42.1581 31.0345 42.3137 31.1988 42.6552 31.2783L42.8985 31.337C43.1484 31.3957 43.2583 31.4817 43.2583 31.6251C43.2583 31.792 43.0856 31.9132 42.8501 31.9132C42.5976 31.9132 42.4223 31.7998 42.3975 31.6212H42.107Z" fill="white"/>
</svg>
