<svg width="56" height="57" viewBox="0 0 56 57" fill="none" xmlns="http://www.w3.org/2000/svg">
<path d="M26.726 13.2762C27.4974 12.8347 28.5022 12.8327 29.2729 13.2762C33.1505 15.4673 37.0293 17.6549 40.9062 19.8472C41.6354 20.258 42.1231 21.0695 42.1157 21.9097V35.0918C42.1211 35.9668 41.5852 36.7977 40.8159 37.1991C36.951 39.3781 33.0882 41.5597 29.2241 43.7386C28.4367 44.1888 27.4118 44.1541 26.649 43.667C25.4903 42.9954 24.3296 42.327 23.1709 41.656C22.9341 41.5148 22.6672 41.4024 22.5 41.1729C22.6478 40.9736 22.912 40.9488 23.1268 40.8618C23.6104 40.708 24.0546 40.4612 24.499 40.2216C24.6113 40.1447 24.7485 40.1742 24.8562 40.243C25.847 40.8111 26.829 41.3957 27.8232 41.9583C28.0352 42.0808 28.25 41.9182 28.4313 41.8172C32.2238 39.6737 36.0211 37.5383 39.813 35.3941C39.9535 35.3265 40.0311 35.1774 40.0197 35.0235C40.0224 30.675 40.0204 26.3258 40.0211 21.9773C40.0371 21.8027 39.9361 21.6421 39.7782 21.5707C35.9268 19.4017 32.0773 17.2294 28.2266 15.0598C28.1599 15.014 28.0808 14.9894 27.9999 14.9893C27.9189 14.9891 27.8398 15.0135 27.773 15.0592C23.9222 17.2294 20.0735 19.4037 16.2227 21.5725C16.0654 21.6441 15.9598 21.802 15.9785 21.9773C15.9792 26.3258 15.9785 30.675 15.9785 35.0242C15.9718 35.0993 15.9883 35.1746 16.0258 35.24C16.0632 35.3055 16.1198 35.3579 16.1879 35.3902C17.2155 35.9729 18.2444 36.5515 19.2727 37.1322C19.852 37.444 20.5632 37.6293 21.2014 37.3904C21.7647 37.1884 22.1595 36.6136 22.1487 36.0156C22.154 31.6925 22.146 27.3688 22.1527 23.0463C22.1386 22.8544 22.3207 22.6959 22.5073 22.7139C23.001 22.7106 23.4954 22.7073 23.9891 22.7152C24.1952 22.7106 24.3371 22.9172 24.3116 23.1106C24.3096 27.4611 24.3169 31.8116 24.3083 36.1621C24.3096 37.3216 23.8332 38.5832 22.7608 39.1505C21.4396 39.8349 19.8065 39.6898 18.5013 39.0335C17.3713 38.4695 16.293 37.8039 15.1831 37.1997C14.4118 36.8005 13.8785 35.9662 13.8839 35.0919V21.9097C13.8758 21.0521 14.3829 20.2258 15.1349 19.8211C18.999 17.6403 22.8625 15.458 26.726 13.2762Z" fill="#8CC84B"/>
<path d="M30.097 22.4075C31.7823 22.299 33.5865 22.3432 35.1031 23.1735C36.2773 23.8097 36.9283 25.145 36.949 26.4495C36.9162 26.6254 36.7323 26.7225 36.5643 26.7104C36.0753 26.7097 35.5862 26.7171 35.0972 26.7071C34.8898 26.7151 34.7693 26.5238 34.7432 26.3404C34.6027 25.7163 34.2623 25.0981 33.6749 24.7971C32.773 24.3455 31.7274 24.3682 30.744 24.3777C30.0261 24.4158 29.2541 24.4779 28.6459 24.9001C28.179 25.2199 28.0372 25.8654 28.2038 26.3853C28.361 26.7586 28.7919 26.879 29.1444 26.9901C31.1755 27.5213 33.3277 27.4684 35.32 28.1675C36.1448 28.4525 36.9516 29.0065 37.234 29.8701C37.6033 31.0275 37.4414 32.411 36.6179 33.3402C35.9501 34.1049 34.9775 34.521 34.0074 34.7471C32.7169 35.0348 31.3776 35.0422 30.067 34.9144C28.8346 34.7739 27.5522 34.4501 26.6008 33.6105C25.7873 32.9041 25.39 31.8035 25.4294 30.7412C25.4388 30.5618 25.6175 30.4367 25.7893 30.4515C26.2817 30.4475 26.7741 30.4461 27.2666 30.4521C27.4632 30.4381 27.609 30.608 27.6191 30.7934C27.71 31.3881 27.9335 32.0122 28.452 32.3648C29.4528 33.0105 30.7085 32.9662 31.8545 32.9843C32.8038 32.9422 33.8695 32.9295 34.6443 32.302C35.053 31.9441 35.1741 31.3453 35.0637 30.8302C34.944 30.3953 34.489 30.1926 34.0983 30.0601C32.0934 29.4259 29.9171 29.656 27.9315 28.9388C27.1254 28.6539 26.3459 28.1153 26.0362 27.2871C25.6041 26.1151 25.8021 24.6653 26.7119 23.7675C27.599 22.8744 28.8795 22.5305 30.097 22.4074V22.4075Z" fill="#8CC84B"/>
</svg>
