<svg width="57" height="57" viewBox="0 0 57 57" fill="none" xmlns="http://www.w3.org/2000/svg">
<path d="M28.5916 31.2429C30.1149 31.2429 31.3498 30.0149 31.3498 28.5C31.3498 26.9852 30.1149 25.7572 28.5916 25.7572C27.0684 25.7572 25.8335 26.9852 25.8335 28.5C25.8335 30.0149 27.0684 31.2429 28.5916 31.2429Z" fill="#61DAFB"/>
<path fill-rule="evenodd" clip-rule="evenodd" d="M15.6231 27.0567C14.9976 27.6182 14.792 28.1078 14.792 28.4999C14.792 28.8921 14.9976 29.3817 15.6231 29.9431C16.2481 30.5043 17.209 31.0554 18.4817 31.5386C21.0202 32.5024 24.5943 33.1194 28.5918 33.1194C32.5893 33.1194 36.1635 32.5024 38.7019 31.5386C39.9746 31.0554 40.9355 30.5043 41.5606 29.9431C42.1861 29.3817 42.3917 28.8921 42.3917 28.4999C42.3917 28.1078 42.1861 27.6182 41.5606 27.0567C40.9355 26.4956 39.9746 25.9445 38.7019 25.4613C36.1635 24.4974 32.5893 23.8805 28.5918 23.8805C24.5943 23.8805 21.0202 24.4974 18.4817 25.4613C17.209 25.9445 16.2481 26.4956 15.6231 27.0567ZM17.7718 23.5915C20.5899 22.5215 24.4156 21.8805 28.5918 21.8805C32.7681 21.8805 36.5938 22.5215 39.4119 23.5915C40.8174 24.1252 42.0239 24.785 42.8966 25.5685C43.769 26.3516 44.3917 27.3403 44.3917 28.4999C44.3917 29.6596 43.769 30.6483 42.8966 31.4314C42.0239 32.2149 40.8174 32.8747 39.4119 33.4084C36.5938 34.4784 32.7681 35.1194 28.5918 35.1194C24.4156 35.1194 20.5899 34.4784 17.7718 33.4084C16.3663 32.8747 15.1598 32.2149 14.287 31.4314C13.4147 30.6483 12.792 29.6596 12.792 28.4999C12.792 27.3403 13.4147 26.3516 14.287 25.5685C15.1598 24.785 16.3663 24.1252 17.7718 23.5915Z" fill="#61DAFB"/>
<path fill-rule="evenodd" clip-rule="evenodd" d="M23.3722 16.6116C22.5715 16.354 22.0396 16.4204 21.6939 16.6189C21.3481 16.8174 21.0243 17.2423 20.8483 18.0607C20.6723 18.8791 20.6728 19.9814 20.8882 21.3183C21.3178 23.9848 22.567 27.3701 24.5651 30.8118C26.5633 34.2534 28.8868 37.0219 30.9942 38.7252C32.0507 39.5791 33.0104 40.1307 33.8112 40.3883C34.6119 40.6459 35.1438 40.5795 35.4895 40.381C35.8353 40.1824 36.1591 39.7576 36.3351 38.9392C36.5111 38.1208 36.5106 37.0185 36.2952 35.6816C35.8656 33.015 34.6164 29.6298 32.6182 26.1881C30.6201 22.7465 28.2966 19.978 26.1892 18.2747C25.1327 17.4208 24.173 16.8692 23.3722 16.6116ZM27.4499 16.7263C29.792 18.6192 32.264 21.5946 34.3527 25.1923C36.4414 28.79 37.7966 32.4066 38.2741 35.3701C38.5122 36.8482 38.5409 38.2179 38.2948 39.3617C38.0488 40.5056 37.4993 41.5332 36.4937 42.1106C35.4881 42.688 34.3184 42.6474 33.1992 42.2873C32.0801 41.9273 30.9016 41.2178 29.7334 40.2736C27.3914 38.3807 24.9194 35.4053 22.8307 31.8076C20.742 28.2099 19.3867 24.5933 18.9093 21.6298C18.6712 20.1517 18.6425 18.782 18.8885 17.6382C19.1346 16.4943 19.6841 15.4667 20.6897 14.8893C21.6953 14.3119 22.865 14.3525 23.9841 14.7126C25.1033 15.0726 26.2817 15.7821 27.4499 16.7263Z" fill="#61DAFB"/>
<path fill-rule="evenodd" clip-rule="evenodd" d="M36.3353 18.0606C36.1592 17.2423 35.8355 16.8174 35.4897 16.6189C35.1439 16.4204 34.6121 16.354 33.8114 16.6115C33.0106 16.8692 32.0509 17.4208 30.9943 18.2747C28.8869 19.9779 26.5635 22.7464 24.5653 26.1881C22.5672 29.6297 21.3179 33.015 20.8883 35.6815C20.673 37.0184 20.6724 38.1207 20.8485 38.9392C21.0245 39.7576 21.3483 40.1824 21.694 40.3809C22.0398 40.5794 22.5717 40.6459 23.3724 40.3883C24.1731 40.1306 25.1329 39.579 26.1894 38.7251C28.2968 37.0219 30.6203 34.2534 32.6184 30.8117C34.6166 27.3701 35.8658 23.9848 36.2954 21.3183C36.5108 19.9814 36.5113 18.8791 36.3353 18.0606ZM38.2742 21.6298C37.7968 24.5932 36.4416 28.2099 34.3529 31.8075C32.2642 35.4052 29.7922 38.3807 27.4501 40.2736C26.2819 41.2177 25.1034 41.9273 23.9843 42.2873C22.8651 42.6473 21.6955 42.6879 20.6899 42.1105C19.6842 41.5332 19.1347 40.5056 18.8887 39.3617C18.6427 38.2179 18.6713 36.8482 18.9095 35.37C19.3869 32.4066 20.7421 28.7899 22.8309 25.1923C24.9196 21.5946 27.3916 18.6191 29.7336 16.7262C30.9018 15.7821 32.0803 15.0725 33.1994 14.7125C34.3186 14.3525 35.4883 14.3119 36.4939 14.8893C37.4995 15.4666 38.049 16.4943 38.295 17.6381C38.541 18.7819 38.5124 20.1516 38.2742 21.6298Z" fill="#61DAFB"/>
</svg>
