<svg width="143" height="172" viewBox="0 0 143 172" fill="none" xmlns="http://www.w3.org/2000/svg">
<circle cx="79.6074" cy="9.29547" r="9.29547" fill="#004E32"/>
<circle cx="139.099" cy="47.7167" r="3.71819" fill="#004E32"/>
<path d="M130.444 11.1762C133.497 18.6992 129.874 27.273 122.351 30.3263C121.521 30.6631 120.678 30.9187 119.832 31.0967C115.12 32.0875 109.859 33.4349 107.338 37.5364C104.395 42.325 106.004 48.5435 110.35 52.108C119.015 59.215 126.027 68.5824 130.383 79.7696C143.906 114.499 126.715 153.615 91.9856 167.138C57.2564 180.661 18.1401 163.47 4.61711 128.741C-8.90593 94.0116 8.28511 54.8954 43.0144 41.3723C58.1834 35.4657 74.1894 35.4187 88.5341 40.1332C93.7299 41.8409 99.6536 40.2229 102.517 35.5634L103.582 33.8309C105.694 30.395 104.717 25.97 103.201 22.2331C100.147 14.7101 103.771 6.13632 111.294 3.08303C118.817 0.0297428 127.391 3.65318 130.444 11.1762Z" fill="#004E32"/>
</svg>
