<svg width="56" height="57" viewBox="0 0 56 57" fill="none" xmlns="http://www.w3.org/2000/svg">
<path d="M27.9999 19.1692C23.8516 19.1692 21.2591 21.2427 20.2219 25.3895C21.7777 23.3159 23.5925 22.5386 25.6665 23.0568C26.8499 23.3525 27.6957 24.2111 28.6321 25.1611C30.1571 26.7087 31.9221 28.4998 35.7779 28.4998C39.9258 28.4998 42.5187 26.4262 43.5554 22.2791C42.0001 24.3527 40.1852 25.1304 38.1109 24.6122C36.9279 24.3165 36.0821 23.4579 35.1457 22.5079C33.6207 20.9603 31.8552 19.1692 27.9999 19.1692ZM20.2219 28.4998C16.074 28.4998 13.4811 30.5733 12.4443 34.7204C13.9997 32.6469 15.8145 31.8692 17.8889 32.3878C19.0719 32.6838 19.9177 33.5421 20.8541 34.4917C22.3791 36.0393 24.1446 37.8308 27.9999 37.8308C32.1482 37.8308 34.7407 35.7572 35.7779 31.6101C34.2221 33.6837 32.4073 34.4613 30.3333 33.9428C29.1499 33.6475 28.3041 32.7885 27.3677 31.8389C25.8427 30.2913 24.0776 28.4998 20.2219 28.4998Z" fill="#06B6D4"/>
</svg>
