<svg width="56" height="57" viewBox="0 0 56 57" fill="none" xmlns="http://www.w3.org/2000/svg">
<path d="M12.4443 12.9445H43.5554V44.0556H12.4443V12.9445Z" fill="#017ACB"/>
<path d="M27.3824 24.4653H28.8748V27.0417H24.8401V38.5042L24.7331 38.5334C24.5873 38.5723 22.6672 38.5723 22.254 38.5285L21.9234 38.4994V27.0417H17.8887V24.4653L19.1671 24.4508C19.8671 24.441 21.6658 24.441 23.163 24.4508C24.6602 24.4605 26.556 24.4653 27.3824 24.4653ZM38.772 37.2889C38.179 37.916 37.5422 38.266 36.4825 38.5528C36.0206 38.6792 35.9429 38.6841 34.9026 38.6792C33.8623 38.6744 33.7797 38.6744 33.2741 38.5431C31.9665 38.2077 30.9116 37.5515 30.1922 36.623C29.988 36.3605 29.6526 35.816 29.6526 35.748C29.6526 35.7285 29.7012 35.6848 29.7644 35.6556C29.8276 35.6265 29.9588 35.5438 30.0658 35.4806C30.1727 35.4174 30.3672 35.3008 30.4984 35.2327C30.6297 35.1646 31.0088 34.941 31.3394 34.7417C31.6699 34.5424 31.9713 34.382 32.0054 34.382C32.0394 34.382 32.1026 34.4501 32.1512 34.5327C32.4429 35.0237 33.1234 35.6508 33.6047 35.8646C33.9012 35.991 34.5574 36.132 34.8734 36.132C35.1651 36.132 35.6998 36.0056 35.9866 35.8744C36.2929 35.7334 36.4484 35.5924 36.6331 35.3105C36.7595 35.1112 36.7741 35.0577 36.7693 34.6785C36.7693 34.3285 36.7498 34.2313 36.6526 34.0709C36.3804 33.6237 36.0109 33.3903 34.5137 32.7292C32.9679 32.0438 32.2727 31.6355 31.7088 31.0862C31.2908 30.6778 31.2081 30.566 30.9456 30.0556C30.6054 29.3994 30.5616 29.1855 30.5567 28.2084C30.5519 27.523 30.5665 27.2994 30.6394 27.066C30.7415 26.716 31.072 26.0403 31.2227 25.8702C31.5338 25.5056 31.6456 25.3938 31.8644 25.214C32.5255 24.6695 33.5561 24.3098 34.5429 24.2758C34.6547 24.2758 35.0241 24.2952 35.3693 24.3195C36.3609 24.4021 37.0366 24.6452 37.688 25.1653C38.179 25.5542 38.9227 26.4681 38.8498 26.5896C38.8012 26.6626 36.8616 27.9556 36.7352 27.9945C36.6575 28.0188 36.604 27.9896 36.497 27.8633C35.8359 27.0709 35.5686 26.9008 34.9269 26.8619C34.4699 26.8327 34.2269 26.8862 33.9206 27.0903C33.5998 27.3042 33.4443 27.6299 33.4443 28.082C33.4491 28.7431 33.7019 29.0542 34.6352 29.516C35.238 29.8126 35.7533 30.0556 35.7922 30.0556C35.8505 30.0556 37.0998 30.6778 37.4255 30.8723C38.9422 31.7619 39.5595 32.6758 39.72 34.2508C39.8366 35.4369 39.5012 36.5209 38.772 37.2889Z" fill="white"/>
</svg>
