<svg width="58" height="57" viewBox="0 0 58 57" fill="none" xmlns="http://www.w3.org/2000/svg">
<path d="M44.3783 17.5492L29.9507 43.6495C29.6528 44.1884 28.8875 44.1916 28.5851 43.6553L13.8715 17.5517C13.5421 16.9674 14.036 16.2595 14.6906 16.378L29.1337 18.9896C29.2258 19.0063 29.3201 19.0061 29.4122 18.9891L43.5532 16.3816C44.2056 16.2613 44.7018 16.9637 44.3783 17.5492Z" fill="url(#paint0_linear_38_23492)"/>
<path d="M36.0135 12.9521L25.3367 15.0687C25.2514 15.0856 25.1741 15.1307 25.1169 15.1969C25.0597 15.2631 25.0258 15.3467 25.0207 15.4345L24.364 26.6564C24.3604 26.7179 24.371 26.7795 24.395 26.8361C24.419 26.8928 24.4557 26.943 24.5023 26.9828C24.5488 27.0226 24.6039 27.0509 24.6631 27.0654C24.7224 27.0799 24.7841 27.0802 24.8435 27.0664L27.8161 26.3724C28.0942 26.3074 28.3455 26.5553 28.2883 26.8382L27.4052 31.2134C27.3458 31.5079 27.619 31.7596 27.9032 31.6722L29.7393 31.1079C30.0239 31.0205 30.2974 31.273 30.2372 31.5677L28.8337 38.4401C28.7459 38.87 29.3111 39.1044 29.5467 38.7359L29.7043 38.4897L38.4043 20.9243C38.5501 20.6302 38.2987 20.2948 37.9796 20.3572L34.9196 20.9546C34.6322 21.0107 34.3876 20.7398 34.4687 20.4553L36.4658 13.4513C36.547 13.1661 36.3014 12.8951 36.0136 12.9521H36.0135Z" fill="url(#paint1_linear_38_23492)"/>
<defs>
<linearGradient id="paint0_linear_38_23492" x1="13.5123" y1="18.4838" x2="29.3074" y2="39.6873" gradientUnits="userSpaceOnUse">
<stop stop-color="#41D1FF"/>
<stop offset="1" stop-color="#BD34FE"/>
</linearGradient>
<linearGradient id="paint1_linear_38_23492" x1="30.4721" y1="13.5268" x2="33.7467" y2="35.7306" gradientUnits="userSpaceOnUse">
<stop stop-color="#FFEA83"/>
<stop offset="0.083" stop-color="#FFDD35"/>
<stop offset="1" stop-color="#FFA800"/>
</linearGradient>
</defs>
</svg>
